<?xml version="1.0" encoding="UTF-8"?>
<svg width="1024" height="1024" viewBox="0 0 1024 1024" xmlns="http://www.w3.org/2000/svg">
  <path d="M 596.12806,281.69092 494.62806,383.29092 462.57818,351.24104 439.92818,373.89105 417.27818,396.54105 622.57814,601.84102 645.22815,579.19101 667.87815,556.54101 635.82805,524.49092 737.32806,422.89091 C 776.32805,383.89092 776.32805,320.69092 737.32806,281.79092 698.32805,242.89092 635.12805,242.79092 596.22806,281.79092 Z M 309.92805,575.79092 C 294.92806,590.79092 286.52805,611.19092 286.52806,632.39092 L 286.52805,674.79092 259.92805,714.69092 304.32806,759.09092 344.22806,732.49092 386.62805,732.49092 C 407.82805,732.49092 428.22806,724.09092 443.22805,709.09092 L 563.92806,588.39092 518.62805,543.09091 397.92805,663.79092 C 394.92805,666.79092 390.82805,668.49092 386.62805,668.49092 L 350.52805,668.49091 V 632.39092 C 350.52805,628.19092 352.22806,624.09092 355.22806,621.09092 L 475.92806,500.39092 430.62805,455.09092 Z"
    style="fill:#292f33;fill-opacity:1;" />
</svg>
