<?xml version="1.0" encoding="UTF-8"?>
<svg width="1024" height="1024" viewBox="0 0 1024 1024" xmlns="http://www.w3.org/2000/svg">
  <path d="M 611.511,315.022 725.378,398.133 611.511,481.244 V 426.488 H 583.067 C 574.089,426.488 565.645,430.666 560.311,437.866 L 522.622,488.266 487.067,440.888 514.8,403.911 C 530.889,382.4 556.222,369.777 583.067,369.777 H 611.511 Z M 415.956,535.733 451.511,583.111 423.778,620.088 C 407.689,641.6 382.356,654.222 355.511,654.222 H 298.622 V 597.333 H 355.511 C 364.489,597.333 372.934,593.155 378.267,585.955 Z M 611.511,708.977 611.422,654.222 H 582.978 C 556.134,654.222 530.8,641.6 514.711,620.088 L 378.267,438.044 C 372.934,430.844 364.489,426.666 355.511,426.666 H 298.622 V 369.777 H 355.511 C 382.356,369.777 407.689,382.4 423.778,403.911 L 560.311,585.955 C 565.645,593.155 574.089,597.333 583.067,597.333 H 611.511 V 542.577 L 725.378,625.688 Z"
    style="fill:#292f33;fill-opacity:1;" />
</svg>
