<svg 
    xmlns="http://www.w3.org/2000/svg"
    width="1200" 
    height="1200">
    <g id="group">
        <path class="fillColor" d="M120,360c0,66.27417-53.72583,120-120,120v-240c66.27417,0,120,53.72583,120,120Z" style="stroke-width:0;"/>
        <path class="fillColor" d="M0,720c240,0,400-120,400-360C400,180,240,180,240,0h240c0,600,480,960,480,1200h-240c0-370-420-500-480-370-50.634992,109.70915,240,130,240,370h-240c0-132.54834-107.45166-240-240-240v-240Z" style="stroke-width:0;"/>
        <path class="fillColor" d="M1200,480C934.90332,480,720,265.09668,720,0h240c0,132.54834,107.45166,240,240,240v240Z" style="stroke-width:0;"/>
        <path class="fillColor" d="M1200,720v240c-200,0-450-360-340-440c101.33434-73.697702,140,200,340,200Z" style="stroke-width:0;"/>
        <path class="strokeColor" d="M0,240c66.27417,0,120,53.72583,120,120s-53.72583,120-120,120" style="fill:none;"/>
        <path class="strokeColor" d="M480,0c0,600,480,960,480,1200" style="fill:none;"/>
        <path class="strokeColor" d="M720,1200c0-370-420-500-480-370-50.634992,109.70915,240,130,240,370" style="fill:none;"/>
        <path class="strokeColor" d="M240,1200c0-132.54834-107.45166-240-240-240" style="fill:none;"/>
        <path class="strokeColor" d="M0,720c240,0,400-120,400-360C400,180,240,180,240,0" style="fill:none;"/>
        <path class="strokeColor" d="M1200,480C934.90332,480,720,265.09668,720,0" style="fill:none;"/>
        <path class="strokeColor" d="M960,0c0,132.54834,107.45166,240,240,240" style="fill:none;"/>
        <path class="strokeColor" d="M1200,960c-200,0-450-360-340-440c101.33434-73.697702,140,200,340,200" style="fill:none;"/>
    </g>
</svg>