<svg 
    xmlns="http://www.w3.org/2000/svg"
    width="1200" 
    height="1200">
    <g id="group">
        <path class="fillColor" d="M0,1200v-400c200,0,400,200,400,400h-400ZM0,0h400c0,115.06673,33.09963,230.13221,89.77741,335.6755C715.04792,260.69457,800,130.34729,800,0h400v400c-192.55873,0-292.4203,139.04574-344.20883,305.57693c0,0,.00001,0,.00001,0C703.58552,621.59884,571.91949,488.63746,489.77742,335.6755C369.40129,375.7425,208.95815,400,0.00001,400L0,399.99993L0,0ZM1200,1200h-399.99999c0-103.72064,0-315.02097,55.79117-494.42307C963.65108,765.08765,1081.82554,800,1200,800v400Z" style="stroke-width:0;"/>
        <path class="strokeColor" d="M800,0.000002C800,200,600,400,0.000004,400.000002" style="fill:none;"/>
        <path class="strokeColor" d="M0.000004,800C200.000002,800,400,1000.000001,400,1200" style="fill:none;"/>
        <path class="strokeColor" d="M1200,400.000002C800,400.000002,800,1000,800,1200" style="fill:none;"/>
        <path class="strokeColor" d="M400,0.000001C400,400.007541,800,799.999999,1200,800" style="fill:none;"/>
    </g>
</svg>