<svg 
    xmlns="http://www.w3.org/2000/svg"
    width="1200" 
    height="1200">
    <g id="group">
        <path class="fillColor" d="M400,0C400,220.9139,220.9139,400,0,400v-200c110.45695,0,200-89.54305,200-200h200Z" style="stroke-width:0;"/>
        <path class="fillColor" d="M1200,1000C1000,1000,800,800,800,0h200c0,110.45695,89.54305,200,200,200v200c-110.45695,0-200,89.54305-200,200s89.54305,200,200,200v200Z" style="stroke-width:0;"/>
        <path class="fillColor" d="M0,800c800,0,1000,200,1000,400h-200c0-110.45695-89.54305-200-200-200s-200,89.54305-200,200h-200c0-110.45695-89.54305-200-200-200v-200Z" style="stroke-width:0;"/>
        <path class="strokeColor" d="M1000,0c0,110.45695,89.54305,200,200,200" style="fill:none;"/>
        <path class="strokeColor" d="M1200,400c-110.45695,0-200,89.54305-200,200s89.54305,200,200,200" style="fill:none;"/>
        <path class="strokeColor" d="M1200,1000C1000,1000,800,800,800,0" style="fill:none;"/>
        <path class="strokeColor" d="M0,200c110.45695,0,200-89.54305,200-200" style="fill:none;"/>
        <path class="strokeColor" d="M400,0C400,220.9139,220.9139,400,0,400" style="fill:none;"/>
        <path class="strokeColor" d="M800,1200c0-110.45695-89.54305-200-200-200s-200,89.54305-200,200" style="fill:none;"/>
        <path class="strokeColor" d="M200,1200c0-110.45695-89.54305-200-200-200" style="fill:none;"/>
        <path class="strokeColor" d="M0,800c800,0,1000,200,1000,400" style="fill:none;"/>
    </g>
</svg>