<svg id="eyBoG7wZRg11" xmlns="http://www.w3.org/2000/svg" xmlns:xlink="http://www.w3.org/1999/xlink" viewBox="0 0 1200 1200" shape-rendering="geometricPrecision" text-rendering="geometricPrecision" width="1200" height="1200"><g><path d="M0,720C397.64502,720,720,397.64502,720,0h240v0c0,480-480,480-480,1200h-240c0-132.54834-107.45166-240-240-240v-240Z" stroke-width="0"/><path d="M480,0C480,265.09668,265.09668,480,0,480v-240C132.54834,240,240,132.54834,240,0h240Z" stroke-width="0"/><path d="M1080,600c0,66.27417,53.72583,120,120,120v240c-132.54834,0-240,107.45166-240,240h-240c0-600,240-960,480-960v240c-66.27417,0-120,53.72583-120,120Z" stroke-width="0"/><path d="M960,0v0c0,480-480,480-480,1200" fill="none" stroke="#ffc0cb" stroke-width="30"/><path d="M240,1200c0-132.54834-107.45166-240-240-240" fill="none" stroke="#ffc0cb" stroke-width="30"/><path d="M0,720C397.64502,720,720,397.64502,720,0" fill="none" stroke="#ffc0cb" stroke-width="30"/><path d="M480,0C480,265.09668,265.09668,480,0,480" fill="none" stroke="#ffc0cb" stroke-width="30"/><path d="M0,240C132.54834,240,240,132.54834,240,0" fill="none" stroke="#ffc0cb" stroke-width="30"/><path d="M1200,480c-66.27417,0-120,53.72583-120,120s53.72583,120,120,120" fill="none" stroke="#ffc0cb" stroke-width="30"/><path d="M1200,960c-132.54834,0-240,107.45166-240,240" fill="none" stroke="#ffc0cb" stroke-width="30"/><path d="M720,1200c0-600,240-960,480-960" fill="none" stroke="#ffc0cb" stroke-width="30"/></g></svg>