<svg id="eW47y0LrQOe1" xmlns="http://www.w3.org/2000/svg" xmlns:xlink="http://www.w3.org/1999/xlink" viewBox="0 0 1200 1200" shape-rendering="geometricPrecision" text-rendering="geometricPrecision" width="1200" height="1200" style="background-color:#fff"><g><path d="M500,1200c0-386.59932,313.40068-700,700-700v200c-276.14237,0-500,223.85763-500,500h-200Z" stroke-width="0"/><path d="M700,0C700,386.59932,386.59932,700,0,700v-200C276.14237,500,500,276.14237,500,0h200Z" stroke-width="0"/><path d="M0,500C276.14237,500,500,276.14237,500,0" fill="none" stroke="#ffc0cb" stroke-width="30"/><path d="M700,0C700,386.59932,386.59932,700,0,700" fill="none" stroke="#ffc0cb" stroke-width="30"/><path d="M1200,700c-276.14237,0-500,223.85763-500,500" fill="none" stroke="#ffc0cb" stroke-width="30"/><path d="M500,1200c0-386.59932,313.40068-700,700-700" fill="none" stroke="#ffc0cb" stroke-width="30"/></g></svg>