<svg id="e0koKXSRsgf1" xmlns="http://www.w3.org/2000/svg" xmlns:xlink="http://www.w3.org/1999/xlink" viewBox="0 0 1200 1200" shape-rendering="geometricPrecision" text-rendering="geometricPrecision" width="1200" height="1200"><g><path d="M0,1200v-400h400c0-250,400-250,400,0h400v400h-400v-400h-400v400h-400ZM0,0h400.00006c-.00002,0-.00004.00001-.00006.00001c0,106.41777,56.62372,212.83554,199.99999,289.12447C473.917,356.21184,280.74666,400,0,400L0,0ZM1200,0v400c-280.74666,0-473.917-43.78816-599.99999-110.87552C743.37628,212.83556,800,106.41778,800,0.00001L799.99993,0L1200,0Z" fill="#dee1e6" stroke-width="0"/><path d="M0,400C600,400,800,199.999999,800,0.000005" fill="none" stroke="#ffc0cb" stroke-width="30"/><path d="M400,0.000005C400,199.999999,600,400,1200,400" fill="none" stroke="#ffc0cb" stroke-width="30"/><path d="M0.000003,800L1200,800" fill="none" stroke="#ffc0cb" stroke-width="30"/><path d="M400,1200c0-186.043131,0-300,0-400c0-250,400-250,400,0c0,100,0,200.933141,0,400" fill="none" stroke="#ffc0cb" stroke-width="30"/></g></svg>