<svg id="eSO5yLfvEn71" xmlns="http://www.w3.org/2000/svg" xmlns:xlink="http://www.w3.org/1999/xlink" viewBox="0 0 1200 1200" shape-rendering="geometricPrecision" text-rendering="geometricPrecision" width="1200" height="1200"><g><path d="M0,1200v-400c259.98458,0,407.31585-75.1022,539.6209-160.22189C390.84347,495.47414,195.42173,400,0,400L0,0h1200v400c-340.0154,0-487.34668,128.4561-660.37908,239.77811C607.76823,705.87636,666.12917,782.21954,710.22109,864.325C830.59739,824.2577,991.04099,800,1200,800v400h-800l173.63344,46.30225L800,1200h.00001c0-115.06558-33.10022-230.13116-89.77892-335.675C484.9517,939.30601,400,1069.653,400,1200h-400ZM800,0.00001h-400c0,270,400,270,400,0ZM539.62091,639.77811c.00001,0,.00001,0,.00001,0s-.00001-.00001-.00001-.00001v.00001Z" fill="#dee1e6" stroke-width="0"/><path d="M0.000003,400C400,400,800,800,800,1200" fill="none" stroke="#ffc0cb" stroke-width="30"/><path d="M0.000004,800C600,800,600,400,1200,400" fill="none" stroke="#ffc0cb" stroke-width="30"/><path d="M400,1200c0-200,200-400,800-400" fill="none" stroke="#ffc0cb" stroke-width="30"/><path d="M400,0.000005C400,270,800,270,800,0.000005" fill="none" stroke="#ffc0cb" stroke-width="30"/></g></svg>