<svg 
    xmlns="http://www.w3.org/2000/svg"
    width="1200" 
    height="1200">
    <g id="group">
        <path d="M0,200c220,0,400,180,400,400c0,170,0,336.45296,0,600h-200c0-110.45695-89.54305-200-200-200v-200c110.45695,0,200-89.54305,200-200s-89.54305-200-200-200v-200Z" fill="#dee1e6" stroke-width="0"/>
        <path d="M800,1200c0-221.85855,0-380.69927,0-600c0-220,180-400,400-400v200c-110.45695,0-200,89.54305-200,200s89.54305,200,200,200v200c-110.45695,0-200,89.54305-200,200h-200Z" fill="#dee1e6" stroke-width="0"/>
        <path d="M600,400C379.0861,400,200,220.9139,200,0h200c0,110.45695,89.54305,200,200,200s200-89.54305,200-200h200c0,220.9139-179.0861,400-400,400Z" fill="#dee1e6" stroke-width="0"/>
        <path d="M0,200c220,0,400,180,400,400c0,170,0,336.45296,0,600" fill="none" stroke="#292F33" stroke-width="30"/>
        <path d="M200,1200c0-110.45695-89.54305-200-200-200" fill="none" stroke="#292F33" stroke-width="30"/>
        <path d="M0,800c110.45695,0,200-89.54305,200-200s-89.54305-200-200-200" fill="none" stroke="#292F33" stroke-width="30"/>
        <path d="M800,1200c0-221.85855,0-380.69927,0-600c0-220,180-400,400-400" fill="none" stroke="#292F33" stroke-width="30"/>
        <path d="M1200,400c-110.45695,0-200,89.54305-200,200s89.54305,200,200,200" fill="none" stroke="#292F33" stroke-width="30"/>
        <path d="M1200,1000c-110.45695,0-200,89.54305-200,200" fill="none" stroke="#292F33" stroke-width="30"/>
        <path d="M400,0c0,110.45695,89.54305,200,200,200s200-89.54305,200-200" fill="none" stroke="#292F33" stroke-width="30"/>
        <path d="M1000,0c0,220.9139-179.0861,400-400,400s-400-179.0861-400-400" fill="none" stroke="#292F33" stroke-width="30"/>
    </g>
</svg>