<svg xmlns="http://www.w3.org/2000/svg" width="400" height="200" viewBox="0 0 400 200">
  <defs>
    <style>
      .cls-1 {
        fill-rule: evenodd;
      }
    </style>
  </defs>
  <path id="B" class="cls-1" d="M198.077,130.624q13.9,0,21.259-5.521T226.7,108.6a17.416,17.416,0,0,0-1.071-6.262,15.561,15.561,0,0,0-2.912-4.862,15.262,15.262,0,0,0-4.284-3.351,16.736,16.736,0,0,0-5.137-1.73,14.787,14.787,0,0,0,4.67-2.582,15.463,15.463,0,0,0,3.3-3.79,16.47,16.47,0,0,0,1.95-4.7,21.825,21.825,0,0,0,.631-5.246q0-8.679-6.125-12.964t-18.374-4.285H176.16v71.8h21.917Zm11.069-48.285a8.137,8.137,0,0,1-2.087,3.213,10.1,10.1,0,0,1-3.736,2.2,17.015,17.015,0,0,1-5.575.8h-8.185V69.54h8.185a20.933,20.933,0,0,1,5.52.632A10.446,10.446,0,0,1,207,71.957a6.723,6.723,0,0,1,2.115,2.8,9.843,9.843,0,0,1,.659,3.68A11.773,11.773,0,0,1,209.146,82.339Zm-19.583,37.243V98.873h8.405q7.2,0,10.684,2.637a8.646,8.646,0,0,1,3.488,7.306,10.568,10.568,0,0,1-.852,4.229,9.592,9.592,0,0,1-2.5,3.434,11.785,11.785,0,0,1-4.092,2.279,17.79,17.79,0,0,1-5.686.824h-9.448Z"/>
</svg>
