<svg xmlns="http://www.w3.org/2000/svg" width="400" height="200" viewBox="0 0 400 200">
  <defs>
    <style>
      .cls-1 {
        fill-rule: evenodd;
      }
    </style>
  </defs>
  <path id="C" class="cls-1" d="M224.225,115.188q-1.814.823-3.928,1.62a44.718,44.718,0,0,1-4.284,1.374q-2.172.576-4.285,0.933a23.589,23.589,0,0,1-3.928.357,20.919,20.919,0,0,1-8.734-1.675,15.251,15.251,0,0,1-6.042-4.861,21.486,21.486,0,0,1-3.488-7.773,43.783,43.783,0,0,1-1.127-10.41,43.245,43.245,0,0,1,1.1-10.08,22.876,22.876,0,0,1,3.433-7.91A16.063,16.063,0,0,1,198.9,71.6a19.114,19.114,0,0,1,8.734-1.84,35.979,35.979,0,0,1,7.691.934,42.686,42.686,0,0,1,8.9,3.131v-13.4q-2.307-.769-4.45-1.263t-4.229-.8q-2.089-.3-4.258-0.412t-4.641-.11a35.441,35.441,0,0,0-13.761,2.554,28.08,28.08,0,0,0-10.409,7.416,33.51,33.51,0,0,0-6.592,11.92,51.842,51.842,0,0,0-2.307,16.122,51.46,51.46,0,0,0,2.115,15.518,29.674,29.674,0,0,0,6.207,11.179,25.81,25.81,0,0,0,10.053,6.784,38.21,38.21,0,0,0,13.7,2.279,45.469,45.469,0,0,0,9.311-.934,54.823,54.823,0,0,0,9.256-2.856V115.188Z"/>
</svg>
