<svg xmlns="http://www.w3.org/2000/svg" width="800" height="200" viewBox="0 0 800 200">
  <defs>
    <style>
      .cls-1 {
        fill-rule: evenodd;
      }
    </style>
  </defs>
  <path id="color2:" class="cls-1" d="M220.428,116.561a37.437,37.437,0,0,1-3.543,1.318q-1.894.606-3.845,1.072a36.558,36.558,0,0,1-3.9.714,29.681,29.681,0,0,1-3.708.247,17.666,17.666,0,0,1-6.592-1.181,14.111,14.111,0,0,1-5.081-3.406,15.281,15.281,0,0,1-3.268-5.411,21.034,21.034,0,0,1-1.154-7.2,22.213,22.213,0,0,1,1.071-7.058,15.226,15.226,0,0,1,3.1-5.466,14.036,14.036,0,0,1,5-3.516,16.951,16.951,0,0,1,6.7-1.263,33.153,33.153,0,0,1,7.554.934,33.7,33.7,0,0,1,7.388,2.637V75.967a51.514,51.514,0,0,0-6.674-1.456,60.92,60.92,0,0,0-9.147-.577,33.264,33.264,0,0,0-12.057,2.087A25.805,25.805,0,0,0,177.06,91.238a33.251,33.251,0,0,0-2.115,12.139,35.06,35.06,0,0,0,1.95,12.2,23.422,23.422,0,0,0,5.631,8.844,23.726,23.726,0,0,0,8.953,5.384,36.564,36.564,0,0,0,11.921,1.812,49.355,49.355,0,0,0,8.844-.769,41.8,41.8,0,0,0,8.184-2.362v-11.92Zm70.8-26.669a23.99,23.99,0,0,0-5.191-8.981,21.687,21.687,0,0,0-8.295-5.466,31.515,31.515,0,0,0-11.151-1.84,29.928,29.928,0,0,0-11.536,2.115,24.157,24.157,0,0,0-8.651,5.96,26.263,26.263,0,0,0-5.439,9.283,36.552,36.552,0,0,0-1.9,12.085,39.727,39.727,0,0,0,1.813,12.607,23.931,23.931,0,0,0,5.219,9.008,21.534,21.534,0,0,0,8.294,5.411,31.752,31.752,0,0,0,11.1,1.813,29.887,29.887,0,0,0,11.646-2.142,23.845,23.845,0,0,0,8.624-6.043,26.674,26.674,0,0,0,5.383-9.366,37.094,37.094,0,0,0,1.868-12.057A39.2,39.2,0,0,0,291.23,89.892Zm-12.937,19.693a18.006,18.006,0,0,1-2.307,5.63,10.9,10.9,0,0,1-4.01,3.736,12,12,0,0,1-5.822,1.345,11.613,11.613,0,0,1-9.613-4.422q-3.516-4.42-3.516-13.156a30.01,30.01,0,0,1,.741-6.811,16.83,16.83,0,0,1,2.335-5.576,11.6,11.6,0,0,1,4.065-3.763,12.169,12.169,0,0,1,5.988-1.373q6.37,0,9.64,4.367t3.269,13.046A30.152,30.152,0,0,1,278.293,109.585Zm49.955,10.6H310.56v10.437h47.516V120.187h-16.1V53.005h-29.5V63.442h15.765v56.745Zm97.938-30.3A23.99,23.99,0,0,0,421,80.91a21.687,21.687,0,0,0-8.3-5.466,31.515,31.515,0,0,0-11.151-1.84,29.928,29.928,0,0,0-11.536,2.115,24.157,24.157,0,0,0-8.651,5.96,26.263,26.263,0,0,0-5.439,9.283,36.552,36.552,0,0,0-1.895,12.085,39.727,39.727,0,0,0,1.813,12.607,23.944,23.944,0,0,0,5.219,9.008,21.534,21.534,0,0,0,8.294,5.411,31.752,31.752,0,0,0,11.1,1.813,29.887,29.887,0,0,0,11.646-2.142,23.845,23.845,0,0,0,8.624-6.043,26.691,26.691,0,0,0,5.384-9.366,37.122,37.122,0,0,0,1.867-12.057A39.175,39.175,0,0,0,426.186,89.892ZM413.25,109.585a18.031,18.031,0,0,1-2.308,5.63,10.9,10.9,0,0,1-4.01,3.736,12,12,0,0,1-5.822,1.345,11.613,11.613,0,0,1-9.613-4.422q-3.516-4.42-3.516-13.156a29.952,29.952,0,0,1,.742-6.811,16.828,16.828,0,0,1,2.334-5.576,11.6,11.6,0,0,1,4.065-3.763A12.169,12.169,0,0,1,401.11,85.2q6.37,0,9.64,4.367t3.269,13.046A30.207,30.207,0,0,1,413.25,109.585Zm81.32-13.074a37.081,37.081,0,0,0-.906-9.97,18.954,18.954,0,0,0-3.3-7.169,14.2,14.2,0,0,0-5.493-4.312,18.273,18.273,0,0,0-7.5-1.456,22.836,22.836,0,0,0-5.658.659,18.136,18.136,0,0,0-4.7,1.9,19.452,19.452,0,0,0-3.845,2.939,22.077,22.077,0,0,0-3.1,3.845l-0.494-8.13h-12.14v55.811h13.733V95.3a35.2,35.2,0,0,1,6.949-8.047,10.1,10.1,0,0,1,6.125-2.444,6.67,6.67,0,0,1,3.021.659,5.626,5.626,0,0,1,2.225,2.087,10.288,10.288,0,0,1,1.318,3.625,24.708,24.708,0,0,1,.3,5.328H494.57Zm66.27,34.113v-12.36H530.573l10.437-9.943q4.119-3.9,7.333-7.415a48.928,48.928,0,0,0,5.411-7.032,30.988,30.988,0,0,0,3.35-7.224,26.742,26.742,0,0,0,1.154-7.993,23.23,23.23,0,0,0-1.675-9.119,17.7,17.7,0,0,0-4.724-6.592,20.406,20.406,0,0,0-7.334-3.983,31.815,31.815,0,0,0-9.558-1.346A30.736,30.736,0,0,0,522.3,60.229a38.208,38.208,0,0,0-10.519,6.949l7.086,9.119a29.172,29.172,0,0,1,6.867-4.916,17.106,17.106,0,0,1,7.855-1.84,11.409,11.409,0,0,1,4.394.8,8.744,8.744,0,0,1,5.109,5.328,11.411,11.411,0,0,1,.659,3.873,22.788,22.788,0,0,1-.494,4.779,17.715,17.715,0,0,1-2.06,5.026,45.253,45.253,0,0,1-4.45,6.18q-2.883,3.461-7.663,8.24l-16.974,16.974v9.888H560.84Zm38.721-55.591a9.862,9.862,0,0,0-5.246,5.273,9.74,9.74,0,0,0-.769,3.845,9.874,9.874,0,0,0,.769,3.9,9.545,9.545,0,0,0,2.115,3.131,10.184,10.184,0,0,0,3.131,2.088,9.675,9.675,0,0,0,3.873.769,9.876,9.876,0,0,0,3.9-.769,9.593,9.593,0,0,0,5.218-5.219,9.875,9.875,0,0,0,.77-3.9,9.741,9.741,0,0,0-.77-3.845,10.111,10.111,0,0,0-2.087-3.159,9.572,9.572,0,0,0-3.131-2.115,9.89,9.89,0,0,0-3.9-.769A9.688,9.688,0,0,0,599.561,75.033Zm0,37.848a10.192,10.192,0,0,0-3.131,2.087,9.55,9.55,0,0,0-2.115,3.131,9.742,9.742,0,0,0-.769,3.845,9.876,9.876,0,0,0,6.015,9.174,9.7,9.7,0,0,0,3.873.769,9.9,9.9,0,0,0,3.9-.769A9.535,9.535,0,0,0,610.465,129a10.1,10.1,0,0,0,2.087-3.158,9.878,9.878,0,0,0,.77-3.9,9.7,9.7,0,0,0-5.988-9.063,9.88,9.88,0,0,0-3.9-.769A9.678,9.678,0,0,0,599.561,112.881Z"/>
</svg>
