<svg xmlns="http://www.w3.org/2000/svg" width="400" height="200" viewBox="0 0 400 200">
  <defs>
    <style>
      .cls-1 {
        fill-rule: evenodd;
      }
    </style>
  </defs>
  <path id="D" class="cls-1" d="M225.955,78.109a27.015,27.015,0,0,0-6.18-10.876,24.948,24.948,0,0,0-10.3-6.345,45.655,45.655,0,0,0-14.42-2.06H173.8v71.8h18.237a45.636,45.636,0,0,0,16.315-2.61,28.645,28.645,0,0,0,11.178-7.415,29.832,29.832,0,0,0,6.427-11.619,52.258,52.258,0,0,0,2.06-15.161A52.992,52.992,0,0,0,225.955,78.109ZM208.35,113.375q-5.164,5.933-15.107,5.933h-5.932V70.144h6.866a23.023,23.023,0,0,1,9.284,1.648,14.064,14.064,0,0,1,5.96,4.807,20.338,20.338,0,0,1,3.158,7.718,52.017,52.017,0,0,1,.934,10.382Q213.513,107.443,208.35,113.375Z"/>
</svg>
