<svg xmlns="http://www.w3.org/2000/svg" width="800" height="200" viewBox="0 0 800 200">
  <defs>
    <style>
      .cls-1 {
        fill-rule: evenodd;
      }
    </style>
  </defs>
  <path id="download:" class="cls-1" d="M153.489,130.624V53.005h-13.4V74.813a29.545,29.545,0,0,0-3.762-.714,32.674,32.674,0,0,0-4.2-.275,35.6,35.6,0,0,0-11.48,1.785,24.064,24.064,0,0,0-9.119,5.493,25.454,25.454,0,0,0-6.015,9.338,36.993,36.993,0,0,0-2.17,13.321,45.8,45.8,0,0,0,1.373,11.646,26.868,26.868,0,0,0,3.983,8.871,17.922,17.922,0,0,0,6.454,5.63,18.939,18.939,0,0,0,8.79,1.978,19.334,19.334,0,0,0,10-2.609,21.568,21.568,0,0,0,4.01-2.994,41.66,41.66,0,0,0,3.626-3.9l0.329,8.24h11.591Zm-35.1-35.294a17.557,17.557,0,0,1,2.829-5.905,12.883,12.883,0,0,1,4.422-3.735,12.618,12.618,0,0,1,5.823-1.318,28.94,28.94,0,0,1,4.7.385,20.772,20.772,0,0,1,3.927.989v24.39a47.442,47.442,0,0,1-6.536,7.526,9.634,9.634,0,0,1-6.482,2.746,8.656,8.656,0,0,1-4.12-.961A7.844,7.844,0,0,1,119.9,116.4a16.761,16.761,0,0,1-1.868-5.356,42.229,42.229,0,0,1-.631-7.882A28.707,28.707,0,0,1,118.387,95.33Zm104.365-5.438a23.977,23.977,0,0,0-5.191-8.981,21.687,21.687,0,0,0-8.3-5.466,31.511,31.511,0,0,0-11.151-1.84,29.923,29.923,0,0,0-11.535,2.115,24.152,24.152,0,0,0-8.652,5.96,26.246,26.246,0,0,0-5.438,9.283,36.526,36.526,0,0,0-1.9,12.085,39.727,39.727,0,0,0,1.813,12.607,23.944,23.944,0,0,0,5.219,9.008,21.541,21.541,0,0,0,8.294,5.411,31.754,31.754,0,0,0,11.1,1.813,29.885,29.885,0,0,0,11.645-2.142,23.845,23.845,0,0,0,8.624-6.043,26.676,26.676,0,0,0,5.384-9.366,37.122,37.122,0,0,0,1.867-12.057A39.175,39.175,0,0,0,222.752,89.892Zm-12.936,19.693a18.053,18.053,0,0,1-2.307,5.63,10.912,10.912,0,0,1-4.01,3.736,12,12,0,0,1-5.823,1.345,11.613,11.613,0,0,1-9.613-4.422q-3.516-4.42-3.516-13.156a29.952,29.952,0,0,1,.742-6.811,16.828,16.828,0,0,1,2.334-5.576,11.6,11.6,0,0,1,4.065-3.763,12.169,12.169,0,0,1,5.988-1.373q6.372,0,9.64,4.367t3.269,13.046A30.207,30.207,0,0,1,209.816,109.585Zm85.6-34.772h-12.14l-3.351,31.421-1.043,8.844-2.582-7.965-5.988-16.864H260.1l-5.6,16.974-2.252,7.745-0.934-8.624L247.3,74.813H234.557l7.91,55.811h14.941l5.713-17.524,1.813-6.317,1.813,6.153,5.932,17.688h14.887Zm60.5,55.811V93.16a28.168,28.168,0,0,0-1.071-8.047,16.984,16.984,0,0,0-3.214-6.152,14.416,14.416,0,0,0-5.328-3.955,18.435,18.435,0,0,0-7.471-1.4,21.543,21.543,0,0,0-5.548.659,18.966,18.966,0,0,0-4.614,1.9,20.834,20.834,0,0,0-3.983,2.994,38.578,38.578,0,0,0-3.543,3.9l-0.329-8.24H309.231v55.811h13.4V95.3a47.444,47.444,0,0,1,6.565-7.471,9.726,9.726,0,0,1,6.509-2.747q6.81,0,6.812,9.174v36.365h13.4Zm38.8-10.437H377.039v10.437h47.515V120.187H408.459V53.005h-29.5V63.442h15.766v56.745Zm97.937-30.3a23.977,23.977,0,0,0-5.191-8.981,21.687,21.687,0,0,0-8.3-5.466,31.511,31.511,0,0,0-11.151-1.84,29.923,29.923,0,0,0-11.535,2.115,24.152,24.152,0,0,0-8.652,5.96,26.246,26.246,0,0,0-5.438,9.283,36.526,36.526,0,0,0-1.895,12.085,39.728,39.728,0,0,0,1.812,12.607,23.944,23.944,0,0,0,5.219,9.008,21.537,21.537,0,0,0,8.3,5.411,31.748,31.748,0,0,0,11.1,1.813,29.885,29.885,0,0,0,11.645-2.142A23.845,23.845,0,0,0,487.2,123.7a26.676,26.676,0,0,0,5.384-9.366,37.122,37.122,0,0,0,1.867-12.057A39.175,39.175,0,0,0,492.664,89.892Zm-12.936,19.693a18.03,18.03,0,0,1-2.307,5.63,10.9,10.9,0,0,1-4.01,3.736,12,12,0,0,1-5.823,1.345,11.613,11.613,0,0,1-9.613-4.422q-3.516-4.42-3.516-13.156a29.952,29.952,0,0,1,.742-6.811,16.828,16.828,0,0,1,2.334-5.576,11.6,11.6,0,0,1,4.065-3.763,12.169,12.169,0,0,1,5.988-1.373q6.372,0,9.64,4.367t3.269,13.046A30.207,30.207,0,0,1,479.728,109.585Zm78.409,21.039V92.5a22.817,22.817,0,0,0-1.373-8.267,14.079,14.079,0,0,0-4.257-5.905,19.191,19.191,0,0,0-7.334-3.543A41.978,41.978,0,0,0,534.517,73.6a55.794,55.794,0,0,0-10.9,1.044,53.379,53.379,0,0,0-9.256,2.637V88a50.743,50.743,0,0,1,9.311-3.159,42.632,42.632,0,0,1,9.75-1.126,18.149,18.149,0,0,1,5.273.659,9.191,9.191,0,0,1,3.489,1.868,7,7,0,0,1,1.95,2.939,11.715,11.715,0,0,1,.6,3.873V96.4h-7.306a47.028,47.028,0,0,0-12.058,1.373,26.822,26.822,0,0,0-8.569,3.791,15.561,15.561,0,0,0-5.108,5.768,16.091,16.091,0,0,0-1.676,7.305,20.972,20.972,0,0,0,1.126,7.032,14.639,14.639,0,0,0,3.324,5.438,15.152,15.152,0,0,0,5.438,3.516,20.643,20.643,0,0,0,7.525,1.263,26.353,26.353,0,0,0,5.961-.632,22.561,22.561,0,0,0,9.255-4.5,38.194,38.194,0,0,0,3.681-3.433l0.329,7.306h11.481Zm-13.4-17.194a42.021,42.021,0,0,1-6.647,5.823,10.479,10.479,0,0,1-5.823,2.032,9.225,9.225,0,0,1-5.987-1.785,6.3,6.3,0,0,1-2.2-5.191,7.677,7.677,0,0,1,.686-3.214,7.108,7.108,0,0,1,2.17-2.664,11.054,11.054,0,0,1,3.845-1.813,21.751,21.751,0,0,1,5.768-.659h8.185v7.471Zm81.1,17.194V53.005h-13.4V74.813a29.6,29.6,0,0,0-3.763-.714,32.658,32.658,0,0,0-4.2-.275,35.607,35.607,0,0,0-11.481,1.785,24.064,24.064,0,0,0-9.119,5.493,25.454,25.454,0,0,0-6.015,9.338,36.993,36.993,0,0,0-2.17,13.321,45.75,45.75,0,0,0,1.374,11.646,26.867,26.867,0,0,0,3.982,8.871,17.917,17.917,0,0,0,6.455,5.63,18.935,18.935,0,0,0,8.789,1.978,19.327,19.327,0,0,0,10-2.609,21.535,21.535,0,0,0,4.01-2.994,41.66,41.66,0,0,0,3.626-3.9l0.329,8.24h11.591Zm-35.1-35.294a17.519,17.519,0,0,1,2.829-5.905,12.864,12.864,0,0,1,4.422-3.735,12.614,12.614,0,0,1,5.822-1.318,28.931,28.931,0,0,1,4.7.385,20.8,20.8,0,0,1,3.928.989v24.39a47.443,47.443,0,0,1-6.537,7.526,9.634,9.634,0,0,1-6.482,2.746,8.656,8.656,0,0,1-4.12-.961,7.844,7.844,0,0,1-3.049-3.049,16.738,16.738,0,0,1-1.867-5.356,42.136,42.136,0,0,1-.632-7.882A28.666,28.666,0,0,1,590.734,95.33Zm75.3-20.3a9.862,9.862,0,0,0-5.246,5.273,9.74,9.74,0,0,0-.769,3.845,9.874,9.874,0,0,0,.769,3.9,9.56,9.56,0,0,0,2.115,3.131,10.184,10.184,0,0,0,3.131,2.088,9.675,9.675,0,0,0,3.873.769,9.873,9.873,0,0,0,3.9-.769,9.6,9.6,0,0,0,5.219-5.219,9.892,9.892,0,0,0,.769-3.9,9.758,9.758,0,0,0-.769-3.845,10.114,10.114,0,0,0-2.088-3.159,9.561,9.561,0,0,0-3.131-2.115,9.887,9.887,0,0,0-3.9-.769A9.688,9.688,0,0,0,666.039,75.033Zm0,37.848a10.192,10.192,0,0,0-3.131,2.087,9.566,9.566,0,0,0-2.115,3.131,9.742,9.742,0,0,0-.769,3.845,9.876,9.876,0,0,0,6.015,9.174,9.7,9.7,0,0,0,3.873.769,9.894,9.894,0,0,0,3.9-.769A9.525,9.525,0,0,0,676.943,129a10.108,10.108,0,0,0,2.088-3.158,9.9,9.9,0,0,0,.769-3.9,9.7,9.7,0,0,0-5.988-9.063,9.876,9.876,0,0,0-3.9-.769A9.678,9.678,0,0,0,666.039,112.881Z"/>
</svg>
