<svg xmlns="http://www.w3.org/2000/svg" width="800" height="200" viewBox="0 0 800 200">
  <defs>
    <style>
      .cls-1 {
        fill-rule: evenodd;
      }
    </style>
  </defs>
  <path id="style:" class="cls-1" d="M254.167,108.431a11.652,11.652,0,0,0-2.883-4.5,19.223,19.223,0,0,0-5.3-3.543,52.9,52.9,0,0,0-8.13-2.939q-4.286-1.208-6.894-2.225a23.551,23.551,0,0,1-4.065-1.95,5.259,5.259,0,0,1-1.95-1.923,4.961,4.961,0,0,1-.495-2.252,4.582,4.582,0,0,1,2.5-4.12,12.889,12.889,0,0,1,6.619-1.483,55.994,55.994,0,0,1,8.322.632,57.345,57.345,0,0,1,8.982,2.17V75.362q-3.132-.659-7.2-1.209a70.567,70.567,0,0,0-9.339-.549,38.543,38.543,0,0,0-10.657,1.318,23.506,23.506,0,0,0-7.608,3.6,15.281,15.281,0,0,0-4.586,5.3,13.966,13.966,0,0,0-1.538,6.427,16.82,16.82,0,0,0,1.016,6.125,12.813,12.813,0,0,0,3.048,4.586,18.6,18.6,0,0,0,5.137,3.434A46.774,46.774,0,0,0,226.372,107q4.449,1.265,7.2,2.28a23.2,23.2,0,0,1,4.257,1.977,5.7,5.7,0,0,1,2.06,2,4.881,4.881,0,0,1,.55,2.307,5.023,5.023,0,0,1-2.61,4.367q-2.608,1.677-7.882,1.676a52.7,52.7,0,0,1-9.7-.962,51.575,51.575,0,0,1-10.3-3.1v12.085a73.512,73.512,0,0,0,9.338,1.675,96.333,96.333,0,0,0,11.1.577,42.469,42.469,0,0,0,9.036-.961,25.643,25.643,0,0,0,7.91-3.076,16.755,16.755,0,0,0,5.6-5.494,15.074,15.074,0,0,0,2.114-8.157A17.515,17.515,0,0,0,254.167,108.431Zm68.357,10.932q-2.582.714-5.712,1.263a37.057,37.057,0,0,1-6.427.549q-5.164,0-7.361-2.444t-2.2-7.224V85.25h21.7V74.813h-21.7V56.96l-13.732,3.571V74.813h-15V85.25h15V112.5a27.267,27.267,0,0,0,1.235,8.707,13.969,13.969,0,0,0,3.846,6.015,16.468,16.468,0,0,0,6.591,3.515,34.312,34.312,0,0,0,9.476,1.154,52.611,52.611,0,0,0,6.977-.494q3.68-.5,7.305-1.319V119.363Zm74.565-44.55H382.7L371,106.893l-3.406,9.778-3.46-10.217L352.539,74.813H337.6l22.137,55.811a29.74,29.74,0,0,1-2.417,4.751,18.972,18.972,0,0,1-3.049,3.736,13.173,13.173,0,0,1-3.653,2.444,10.441,10.441,0,0,1-4.284.879q-0.825,0-1.785-.055t-1.9-.137q-0.935-.082-1.785-0.22t-1.511-.247v11.371q1.7,0.273,3.324.412t2.994,0.137a28.052,28.052,0,0,0,10.409-1.84,25.8,25.8,0,0,0,8.432-5.494,41.169,41.169,0,0,0,6.949-9.118,100.235,100.235,0,0,0,6.07-12.717Zm32.376,45.374H411.777v10.437h47.516V120.187H443.2V53.005H413.7V63.442h15.765v56.745Zm96.482-31.751a21.973,21.973,0,0,0-4.669-7.855,21.056,21.056,0,0,0-7.635-5.136,27.882,27.882,0,0,0-10.492-1.84,26.335,26.335,0,0,0-10.849,2.17,23.161,23.161,0,0,0-8.268,6.152,28.394,28.394,0,0,0-5.273,9.558,38.838,38.838,0,0,0-1.868,12.387,35.8,35.8,0,0,0,1.868,12.085,23.438,23.438,0,0,0,5.383,8.761,22.632,22.632,0,0,0,8.57,5.356,33.674,33.674,0,0,0,11.425,1.813q2.526,0,5.219-.192t5.328-.577q2.637-.386,5.164-0.879t4.669-1.1V118.484a69.056,69.056,0,0,1-9.64,2.06,64.784,64.784,0,0,1-8.707.631,19.645,19.645,0,0,1-6.4-.988,13.845,13.845,0,0,1-4.944-2.884,12.731,12.731,0,0,1-3.186-4.7,17.285,17.285,0,0,1-1.126-6.482h36.695q0.165-1.921.247-4.12t0.082-3.57A30.13,30.13,0,0,0,525.947,88.436Zm-35.211,8.075q0.6-6.151,3.845-9.531a10.992,10.992,0,0,1,8.295-3.378,11.946,11.946,0,0,1,4.312.769,9.491,9.491,0,0,1,3.516,2.362,11.374,11.374,0,0,1,2.389,4.038,16.171,16.171,0,0,1,.824,5.74H490.736Zm75.086-21.478a9.862,9.862,0,0,0-5.246,5.273,9.74,9.74,0,0,0-.769,3.845,9.874,9.874,0,0,0,.769,3.9,9.545,9.545,0,0,0,2.115,3.131,10.184,10.184,0,0,0,3.131,2.088,9.675,9.675,0,0,0,3.873.769,9.876,9.876,0,0,0,3.9-.769,9.593,9.593,0,0,0,5.218-5.219,9.875,9.875,0,0,0,.77-3.9,9.741,9.741,0,0,0-.77-3.845,10.111,10.111,0,0,0-2.087-3.159,9.572,9.572,0,0,0-3.131-2.115,9.89,9.89,0,0,0-3.9-.769A9.688,9.688,0,0,0,565.822,75.033Zm0,37.848a10.192,10.192,0,0,0-3.131,2.087,9.55,9.55,0,0,0-2.115,3.131,9.742,9.742,0,0,0-.769,3.845,9.876,9.876,0,0,0,6.015,9.174,9.7,9.7,0,0,0,3.873.769,9.9,9.9,0,0,0,3.9-.769A9.535,9.535,0,0,0,576.726,129a10.1,10.1,0,0,0,2.087-3.158,9.878,9.878,0,0,0,.77-3.9,9.7,9.7,0,0,0-5.988-9.063,9.88,9.88,0,0,0-3.9-.769A9.678,9.678,0,0,0,565.822,112.881Z"/>
</svg>
