<svg xmlns="http://www.w3.org/2000/svg" width="1200" height="1200">
  <style>
    .primary {
      fill: #DEE1E6;
    }
    .secondary {
      fill: #F1F3F4;
    }
    .stroke {
      stroke: #292F33;
      stroke-width: 30;
      fill:none;
    }
  </style>
  <path class="primary" d="M 0,200 C 200,200 200,200 200,0 H 0 Z M 400,0 C 400,200 400,200 600,200 800,200 800,200 800,0 Z M 1000,0 C 1000,200 1000,200 1200,200 V 0 Z M 1000,1200 C 1000,1000 1000,1000 1200,1000 V 1200 Z M 0,1000 C 200,1000 200,1000 200,1200 H 0 Z M 0,400 C 200,400 200,400 200,600 200,800 200,800 0,800 Z M 800,1200 V 1000 C 800,800 800,800 1000,800 H 1200 V 400 H 600 C 400,400 400,400 400,600 V 1200 Z" />
  <path class="secondary" d="M 0,400 C 200,400 200,400 200,600 200,800 200,800 0,800 V 1000 C 200,1000 200,1000 200,1200 H 400 V 600 C 400,400 400,400 600,400 H 1200 V 200 C 1000,200 1000,200 1000,0 H 800 C 800,200 800,200 600,200 400,200 400,200 400,0 H 200 C 200,200 200,200 0,200 Z M 1000,1200 C 1000,1000 1000,1000 1200,1000 V 800 H 1000 C 800,800 800,800 800,1000 V 1200 Z" />
  <path class="stroke" d="M 800,1200 V 1000 C 800,800 800,800 1000,800 H 1200 M 400,1200 V 600 C 400,400 400,400 600,400 H 1200 M 1000,1200 C 1000,1000 1000,1000 1200,1000 M 0,1000 C 200,1000 200,1000 200,1200 M 0,400 C 200,400 200,400 200,600 200,800 200,800 0,800 M 1000,0 C 1000,200 1000,200 1200,200 M 400,0 C 400,200 400,200 600,200 800,200 800,200 800,0 M 0,200 C 200,200 200,200 200,0" />
</svg>
