<svg xmlns="http://www.w3.org/2000/svg" width="1200" height="1200">
  <style>
    .primary {
      fill: #DEE1E6;
    }
    .secondary {
      fill: #F1F3F4;
    }
    .stroke {
      stroke: #292F33;
      stroke-width: 30;
      fill:none;
    }
  </style>
  <path class="primary" d="M 960,0 C 960,200 660,435 580,325 506.3,223.7 720,200 720,0 Z M 720,1200 C 720,600 960,240 1200,240 V 480 C 1133.7258,480 1080.0001,533.72583 1080.0001,600 1080.0001,666.27417 1133.7258,720 1200,720 V 960 C 1067.4517,960 960,1067.4517 960,1200 Z M 240,1200 C 240,1067.4517 132.54834,960 0,960 V 720 C 242.06538,720 181.06813,827.17278 350.70529,657.53562 444.78674,557.20601 571.9975,498.9965 620,564.99994 693.7,666.29994 480,689.99994 480,889.9999 V 1200 Z M 0,240 C 132.54834,240 240,132.54834 240,0 H 480 C 480,265 265,480 0,480 Z" />
  <path class="secondary" d="M 0,240 C 132.54834,240 240,132.54834 240,0 H 0 Z M 240,1200 C 240,1067.4517 132.54834,960 0,960 V 1200 Z M 1200,960 C 1067.4517,960 960,1067.4517 960,1200 H 1200 Z M 1200,480 C 1133.7258,480 1080.0001,533.72583 1080.0001,600 1080.0001,666.27417 1133.7258,720 1200,720 Z M 960,0 C 960,200 660,435 580,325 506.3,223.7 720,200 720,0 H 480 C 480,265 265,480 0,480 V 720 C 242.06538,720 181.06813,827.17278 350.70529,657.53562 444.78674,557.20601 571.9975,498.9965 620,564.99994 693.7,666.29994 480,689.99994 480,889.9999 V 1200 H 720 C 720,600 960,240 1200,240 V 0 Z" />
  <path class="stroke" d="M 960,0 C 960,200 660,435 580,325 506.3,223.7 720,200 720,0 M 240,1200 A 240,240 0 0 0 0,960 M 480,1200 V 889.9999 C 480,689.99994 693.7,666.29994 620,564.99994 571.9975,498.9965 444.78674,557.20601 350.70529,657.53562 181.06813,827.17278 242.06538,720 0,720 M 480,0 C 480,265 265,480 0,480 M 0,240 A 240,240 0 0 0 240,0 M 1200,480 A 120,120 0 1 0 1200,720 M 1200,960 A 240,240 0 0 0 960,1200 M 720,1200 C 720,600 960,240 1200,240" />
</svg>
