<svg xmlns="http://www.w3.org/2000/svg" width="1200" height="1200">
  <style>
    .fillColor {
      fill: #dee1e6;
    }
    .strokeColor {
      stroke: #292F33;
      stroke-width: 30;
    }
  </style>
  <g id="group">
    <path class="fillColor" style="stroke-width:0;" d="M0 720A720 720 0 0 0 720 0h240c0 480-480 480-480 1200H240A240 240 0 0 0 0 960V720z"/>
    <path class="fillColor" style="stroke-width:0;" d="M480 0c0 265-215 480-480 480V240A240 240 0 0 0 240 0h240zM1080 600a120 120 0 0 0 120 120v240a240 240 0 0 0-240 240H720c0-600 240-960 480-960v240a120 120 0 0 0-120 120z"/>
    <path class="strokeColor" style="fill:none;" d="M960 0v0c0 480-480 480-480 1200M240 1200A240 240 0 0 0 0 960M0 720A720 720 0 0 0 720 0M480 0c0 265-215 480-480 480M0 240A240 240 0 0 0 240 0M1200 480a120 120 0 1 0 0 240M1200 960a240 240 0 0 0-240 240M720 1200c0-600 240-960 480-960"/>
  </g>
</svg>
