<svg xmlns="http://www.w3.org/2000/svg" width="1200" height="1200">
  <style>
    .fillColor {
      fill: #dee1e6;
    }
    .strokeColor {
      stroke: #292F33;
      stroke-width: 30;
    }
  </style>
  <g id="group">
    <path class="fillColor" style="stroke-width:0;" d="M0 1200V800c618.2 0 519.8-238.8 812.3-347.4C800 336.9 800 188 800 0h400v400c-181.8 0-301.6 20.7-387.7 52.6C839.3 705.8 925.4 800 1200 800v400H800c0-260-400-260-400 0H0zM0 0h400c0 220-180 400-400 400V0z"/>
    <path class="strokeColor" style="fill:none;" d="M0 400c220 0 400-180 400-400M800 0c0 600 0 800 400 800M1200 400C400 400 800 800 0 800M400 1200c0-260 400-260 400 0"/>
  </g>
</svg>
