<svg xmlns="http://www.w3.org/2000/svg" width="1200" height="1200">
  <style>
    .primary {
      fill: #DEE1E6;
    }
    .secondary {
      fill: #F1F3F4;
    }
    .stroke {
      stroke: #292F33;
      stroke-width: 30;
      fill:none;
    }
  </style>
  <path class="primary" d="M 0,1200 V 800 C 618.2,800 519.8,561.2 812.3,452.6 800,336.9 800,188 800,0 H 1200 V 400 C 1018.2,400 898.4,420.7 812.3,452.6 839.3,705.8 925.4,800 1200,800 V 1200 H 800 C 800,940 400,940 400,1200 Z M 0,0 H 400 C 400,220 220,400 0,400 Z" />
  <path class="secondary" d="M 400,1200 C 400,940 800,940 800,1200 Z M 812.3315,452.58835 C 519.83249,561.15161 618.18881,800 0,800 V 400 C 220,400 400,220 400,0 H 800 C 800,188.13511 800,336.94264 812.3315,452.58835 M 812.3315,452.58835 C 839.32758,705.75962 925.42341,800 1200,800 V 400 C 1018.1888,400 898.35634,420.65957 812.3315,452.58835" />
  <path class="stroke" d="M0 400c220 0 400-180 400-400M800 0c0 600 0 800 400 800M1200 400C400 400 800 800 0 800M400 1200c0-260 400-260 400 0" />
</svg>
