<svg xmlns="http://www.w3.org/2000/svg" width="1200" height="1200">
  <style>
    .fillColor {
      fill: #dee1e6;
    }
    .strokeColor {
      stroke: #292F33;
      stroke-width: 30;
    }
  </style>
  <g id="group">
    <path class="fillColor" style="stroke-width:0;" d="M0 1200V800c200 0 400 200 400 400H0zM0 0h400c0 115 33 230.1 89.8 335.7C715 260.7 800 130.3 800 0h400v400c-192.6 0-292.4 139-344.2 305.6a936.5 936.5 0 0 1-366-370C369.4 375.8 209 400 0 400V0zm1200 1200H800c0-103.7 0-315 55.8-494.4C963.7 765 1081.8 800 1200 800v400z"/>
    <path class="strokeColor" style="fill:none;" d="M800 0c0 200-200 400-800 400M0 800c200 0 400 200 400 400M1200 400c-400 0-400 600-400 800M400 0c0 400 400 800 800 800"/>
  </g>
</svg>
