<svg xmlns="http://www.w3.org/2000/svg" width="1200" height="1200">
  <style>
    .fillColor {
      fill: #dee1e6;
    }
    .strokeColor {
      stroke: #292F33;
      stroke-width: 30;
    }
  </style>
  <g id="group">
    <path class="fillColor" style="stroke-width:0;" d="M0 1200V800h400c0-250 400-250 400 0h400v400H800V800H400v400H0zM0 0h400c0 106.4 56.6 212.8 200 289.1C474 356.2 280.7 400 0 400V0zm1200 0v400c-280.7 0-474-43.8-600-110.9 143.4-76.3 200-182.7 200-289V0h400z"/>
    <path class="strokeColor" style="fill:none;" d="M0 400c600 0 800-200 800-400M400 0c0 200 200 400 800 400M0 800h1200M400 1200V800c0-250 400-250 400 0v400"/>
  </g>
</svg>
