<svg xmlns="http://www.w3.org/2000/svg" width="1200" height="1200">
  <style>
    .fillColor {
      fill: #dee1e6;
    }
    .strokeColor {
      stroke: #292F33;
      stroke-width: 30;
    }
  </style>
  <g id="group">
    <path class="fillColor" style="stroke-width:0;" d="M0 1200V800c260 0 407.3-75.1 539.6-160.2C390.8 495.5 195.4 400 0 400V0h1200v400c-340 0-487.3 128.5-660.4 239.8a924.6 924.6 0 0 1 170.6 224.5C830.6 824.3 991 800 1200 800v400H400l173.6 46.3L800 1200c0-115-33.1-230.1-89.8-335.7C485 939.3 400 1069.7 400 1200H0zM800 0H400c0 270 400 270 400 0zM539.6 639.8z"/>
    <path class="strokeColor" style="fill:none;" d="M0 400c400 0 800 400 800 800M0 800c600 0 600-400 1200-400M400 1200c0-200 200-400 800-400M400 0c0 270 400 270 400 0"/>
  </g>
</svg>
