<svg xmlns="http://www.w3.org/2000/svg" width="1200" height="1200">
  <style>
    .fillColor {
      fill: #dee1e6;
    }
    .strokeColor {
      stroke: #292F33;
      stroke-width: 30;
    }
  </style>
  <g id="group">
    <path class="fillColor" style="stroke-width:0;" d="M800 1200V0h400v400a200 200 0 1 0 0 400v400H800zM0 0h400c0 221-179 400-400 400V0zM0 1200V800c221 0 400 179 400 400H0z"/>
    <path class="strokeColor" style="fill:none;" d="M800 1200V0M1200 400a200 200 0 1 0 0 400M400 0c0 221-179 400-400 400M0 800c221 0 400 179 400 400"/>
  </g>
</svg>
