<svg xmlns="http://www.w3.org/2000/svg" width="1200" height="1200">
  <style>
    .primary {
      fill: #DEE1E6;
    }
    .secondary {
      fill: #F1F3F4;
    }
    .stroke {
      stroke: #292F33;
      stroke-width: 30;
      fill:none;
    }
  </style>
  <path class="primary" d="M 350,0 C 350,193.29966 193.29966,350 0,350 V 150 C 82.842712,150 150,82.842712 150,0 Z M 0,700 H 75 C 325,700 420,855 500,775 530,745 480,660 435,600 420,580 420,555 440,540 605,410 700,210 700,0 H 500 C 500,132.60824 447.32158,259.7852 353.55339,353.55339 259.7852,447.32158 132.60824,500 0,500 Z M 1200,150 C 1117.1573,150 1050,82.842712 1050,0 H 850 C 850,193.29966 1006.7003,350 1200,350 Z M 0,1050 C 100,1050 175,995 175,925 175,865 90,850 0,850 Z M 700,1200 C 700,950 855,855 775,775 695,695 535,950 425,950 273.12169,950 150,1061.9288 150,1200 H 350 C 350,1158.5786 383.57864,1125 425,1125 466.42136,1125 500,1158.5786 500,1200 Z M 1200,700 C 1158.5786,700 1125,733.57864 1125,775 1125,816.42136 1158.5786,850 1200,850 V 1050 C 1117.1573,1050 1050,1117.1573 1050,1200 H 850 C 850,950 950,885 950,775 950,665 695,505 775,425 855,345 950,500 1200,500 Z" />
  <path class="secondary" d="M 0,150 C 82.842712,150 150,82.842712 150,0 H 0 Z M 500,0 C 500,132.60824 447.32158,259.7852 353.55339,353.55339 259.7852,447.32158 132.60824,500 0,500 V 350 C 193.29966,350 350,193.29966 350,0 Z M 1050,0 C 1050,82.842712 1117.1573,150 1200,150 V 0 Z M 350,1200 C 350,1158.5786 383.57864,1125 425,1125 466.42136,1125 500,1158.5786 500,1200 Z M 1200,700 C 1158.5786,700 1125,733.57864 1125,775 1125,816.42136 1158.5786,850 1200,850 Z M 1200,1050 C 1117.1573,1050 1050,1117.1573 1050,1200 H 1200 Z M 1200,500 C 950,500 855,345 775,425 695,505 950,665 950,775 950,885 850,950 850,1200 H 700 C 700,950 855,855 775,775 695,695 535,950 425,950 273.12169,950 150,1061.9288 150,1200 H 0 V 1050 C 100,1050 175,995 175,925 175,865 90,850 0,850 V 700 H 75 C 325,700 420,855 500,775 530,745 480,660 435,600 420,580 420,555 440,540 605,410 700,210 700,0 H 850 C 850,193.29966 1006.7003,350 1200,350 Z" />
  <path class="stroke" d="M 0,1050 C 100,1050 175,995 175,925 175,865 90,850 0,850 M 0,700 H 75 C 325,700 420,855 500,775 530,745 480,660 435,600 420,580 420,555 440,540 605,410 700,210 700,0 M 0,500 A 500,500 0 0 0 500,0 M 1200,1050 A 150,150 0 0 0 1050,1200 M 1200,700 A 75,75 0 0 0 1200,850 M 1200,500 C 950,500 855,345 775,425 695,505 950,665 950,775 950,885 850,950 850,1200 M 850,0 A 350,350 0 0 0 1200,350 M 1050,0 A 150,150 0 0 0 1200,150 M 350,1200 A 75,75 0 0 1 500,1200 M 0,350 A 350,350 0 0 0 350,0 M 0,150 A 150,150 0 0 0 150,0 M 700,1200 C 700,950 855,855 775,775 695,695 535,950 425,950 A 275,250 0 0 0 150,1200" />
</svg>
