<svg xmlns="http://www.w3.org/2000/svg" width="1200" height="1200">
  <style>
    .primary {
      fill: #DEE1E6;
    }
    .secondary {
      fill: #F1F3F4;
    }
    .stroke {
      stroke: #292F33;
      stroke-width: 30;
      fill:none;
    }
  </style>
  <path class="primary" d="M 1200,750 C 1120,750 1120,750 1120,600 1120,450 1120,450 1200,450 V 300 H 1160 C 1010,300 1010,300.00819 1010,600 1010,900 1010,900 1160,900 H 1200 Z M 900,1200 V 0 H 750 C 750,150 750,150 600,150 450,150 450,150 450,0 H 300 V 300 C 300,450 300,450 545,450 790,450 790,450 790,600 790,700 750,630 750,750 V 1200 Z M 300,1200 V 1050 C 300,900 300,900 150,900 H 0 V 750 C 80,750 80,750 80,600 80,450 80,450 0,450 V 300 H 40 C 190,300 190,300 190,450 190,600 190,600 340,600 450,600 450,600 450,750 V 1200 Z" />
  <path class="secondary" d="M 1200,450 C 1120,450 1120,450 1120,600 1120,750 1120,750 1200,750 Z M 900,1200 V 0 H 1200 V 300 H 1160 C 1010,300 1010,300.00819 1010,600 1010,900 1010,900 1160,900 H 1200 V 1200 Z M 750,0 C 750,150 750,150 600,150 450,150 450,150 450,0 Z M 750,1200 V 750 C 750,630 790,700 790,600 790,450 790,450 545,450 300,450 300,450 300,300 V 0 H 0 V 300 H 40 C 190,300 190,300 190,450 190,600 190,600 340,600 450,600 450,600 450,750 V 1200 Z M 300,1200 V 1050 C 300,900 300,900 150,900 H 0 V 1200 Z M 0,450 C 80,450 80,450 80,600 80,750 80,750 0,750 Z" />
  <path class="stroke" d="M 0,450 C 80,450 80,450 80,600 80,750 80,750 0,750 M 300,1200 V 1050 C 300,900 300,900 150,900 H 0 M 0,300 H 40 C 190,300 190,300 190,450 190,600 190,600 340,600 450,600 450,600 450,750 V 1200 M 300,0 V 300 C 300,450 300,450 545,450 790,450 790,450 790,600 790,700 750,630 750,750 V 1200 M 900,1200 V 0 M 750,0 C 750,150 750,150 600,150 450,150 450,150 450,0 M 1200,450 C 1120,450 1120,450 1120,600 1120,750 1120,750 1200,750 M 1200,300 H 1160 C 1010,300 1010,300.00819 1010,600 1010,900 1010,900 1160,900 H 1200" />
</svg>
