<svg xmlns="http://www.w3.org/2000/svg" width="1200" height="1200">
  <style>
    .fillColor {
      fill: #dee1e6;
    }
    .strokeColor {
      stroke: #292F33;
      stroke-width: 30;
    }
  </style>
  <g id="group">
    <path class="fillColor" style="stroke-width:0;" d="M1045 600c0-300 0-300 155-300v150c-80 0-80 0-80 150s0 150 80 150v150c-155 0-155 0-155-300zM900 1200V0H750c0 150 0 150-150 150S450 150 450 0H300v301.6C300 450 300 450 550 450s250 0 250 150c0 100-50 30-50 150v450"/>
    <path class="fillColor" style="stroke-width:0;" d="M0 300c150 0 150 0 150 150s0 150 150 150 150 0 150 150v450l-150 4.9v-155c0-158.3 0-148.3-150-148.3-38.3 0-90.6-1.6-150-1.6V750h150c150 0 150-10 150-25s0-25-150-25c-50 0-50 0-50-100v-50c0-100 0-100-100-100V300z"/>
    <path class="strokeColor" style="fill:none;" d="M1201.4 900.9c-158 0-158 0-158-301 0-300.8 0-300.8 158-300.8" transform="matrix(.9814 0 0 .99702 21 1.8)"/>
    <path class="strokeColor" style="fill:none;" d="M1200 450c-80 0-80 0-80 150s0 150 80 150M900 1200V0M750 0c0 150 0 150-150 150S450 150 450 0"/>
    <path class="strokeColor" style="fill:none;" d="M300 0v301.6C300 450 300 450 550 450s250 0 250 150c0 100-50 30-50 150v450"/>
    <path class="strokeColor" style="fill:none;" d="M0 300c150 0 150 0 150 150s0 150 150 150 150 0 150 150v450"/>
    <path class="strokeColor" style="fill:none;" d="M300 1200v-150c0-158.4 0-148.4-150-148.4-38.3 0-90.6-1.6-150-1.6M0 750h150c150 0 150-10 150-25s0-25-150-25c-50 0-50 0-50-100v-50c0-100 0-100-100-100"/>
  </g>
</svg>
