<svg
    xmlns="http://www.w3.org/2000/svg"
    width="1200" 
    height="1200">
    <g id="group">
        <path d="M1045.001403,599.999994c0-300-.00006-299.999994,154.998597-299.999994v150c-79.999295-.000006-79.999295-.000006-79.999295,149.999994s0,150.000006,79.999295,150.000006v149.999999c-154.998597,0-154.998597-.000005-154.998597-300.000005Z" fill="#dee1e6" stroke-width="0"/>
        <path d="M900,1200L900,0h-150c0,150,0,150-150.000002,150s-150,0-149.999998-150h-149.999999c-.000001,165.501712,0,105.958245,0,301.58075C300.000001,449.999999,299.999998,450,549.999998,450s250-.000001,250,150c0,100-50,30-50,150C750,860,750,1110,749.999999,1200" fill="#dee1e6" stroke-width="0"/>
        <path d="M0.000002,300C150,299.999994,150,299.999993,150,449.999994s.000003,150,150.000003,150s149.999997,0,149.999999,150.000004-.000002,369.831072-.000002,450.000002l-150,4.860503c0-49.596947.000004-119.466065.000003-154.860509c0-158.41925,0-148.41925-150.000003-148.41925-38.278123,0-90.604247-1.580745-150-1.580745l.000002-150.000005c61.789071-.000001,59.999998,0,149.999998,0c150.000003,0,149.999997-10,150-25s.000003-25-150-25c-50,0-50,0-50-100c0-12.600585,0-34.275582,0-50c0-99.999998,0-100-99.999998-99.999998v-149.999996Z" fill="#dee1e6" stroke-width="0"/>
        <path d="M1201.420669,900.892827c-157.93473,0-157.934754,0-157.93469-300.897281-.000064-300.897281-.000071-300.897271,157.93469-300.897269" transform="matrix(.981409 0 0 0.997018 20.914875 1.793635)" fill="none" stroke="#292f33" stroke-width="30"/>
        <path d="M1200,450c-79.999293,0-79.999294-.000006-79.999294,149.999994s.000001,150,79.999294,150.000006" fill="none" stroke="#292f33" stroke-width="30"/>
        <path d="M900,1200L900,0" fill="none" stroke="#292f33" stroke-width="30"/>
        <path d="M750,0c0,150,0,150-150.000002,150s-150,0-149.999998-150" fill="none" stroke="#292f33" stroke-width="30"/>
        <path d="M300.000003,0c-.000001,165.501712-.000002,105.958245-.000002,301.58075C300.000001,449.999999,299.999998,450,549.999998,450s250-.000001,250,150c0,100-50,30-50,150C750,860,750,1110,749.999999,1200" fill="none" stroke="#292f33" stroke-width="30"/>
        <path d="M0.000002,300C150,299.999994,150,299.999993,150,449.999994s.000003,150,150.000003,150s149.999997,0,149.999999,150.000004-.000002,369.831072-.000002,450.000002" fill="none" stroke="#292f33" stroke-width="30"/>
        <path d="M300.000003,1200c0-49.596947.000001-114.605562,0-150.000006c0-158.41925,0-148.41925-150.000003-148.41925-38.278123,0-90.604247-1.580745-150-1.580745" fill="none" stroke="#292f33" stroke-width="30"/>
        <path d="M0.000002,749.999994c61.789071-.000001,59.999998,0,149.999998,0c150.000003,0,149.999997-10,150-25s.000003-25-150-25c-50,0-50,0-50-100c0-12.600585,0-34.275582,0-50c0-99.999998,0-100-99.999998-99.999998" fill="none" stroke="#292f33" stroke-width="30"/>
    </g>
</svg>
