<svg xmlns="http://www.w3.org/2000/svg" width="1200" height="1200">
  <style>
    .fillColor {
      fill: #dee1e6;
    }
    .strokeColor {
      stroke: #292F33;
      stroke-width: 30;
    }
  </style>
  <g id="group">
    <path class="fillColor" style="stroke-width:0;" d="M200 0c0 47.5-7.2 36-27.4 79a148.1 148.1 0 0 0-9.7 86c4.4 21 21.1 29.8 26.6 62.9 2 11.5-7.6 35.8-9.7 38.7-19 27-60.3 15.2-95.6-10.9C55.4 234.5 34.5 200 0 200V0h200zM0 400c44.4 0 163.3 3.6 172.6 59.2 11.9 71.6-19.3 69.8-9.7 161 5 47.8 6.5 94.8 0 133-7 40.3-34.7 58.8-68.5 58.8C68.5 812 73 800 0 800V400zM200 1200H0v-200c35.7 0 75 5.8 140.2-43.2 20.3-15.2 75.7-95.3 85.3-115.6 19.7-41.8 22.8-114.4 60-120.3 41.8-1 42.5 52.5 42.5 109.6 0 46.3-52.6 146.2-84 195.1-38.8 60.3-44 59.3-44 174.4zM800 0H400c0 165 55.5 175.2 37.6 244.1-10 38.3-98.6 109.3-87.8 138 16 42.8 91 15 143.3 87.8C534.3 527.3 495 600 572 600s24.5-114.2 68-171.3c13.8-18 90.5-112.8 125.5-200.8C803.8 131.9 800 41.3 800 0zM1200 200c-200 0-260.7 199.7-330.6 114.6C814 247 1000 200 1000 0h200v200zM400 1200c0-305 126.5-303.5 255.2-358.8 101.8-43.7 86.5-170.5 124-207.6 93-91.6 164.7-15.2 220.8-152 35-108 116-81.6 200-81.6v400c-76.8 0-157-66.3-213.6-27.6-53.2 36.5-63.6 83.2-93.5 156-12.8 31-54.7 62.8-68.3 97.2-26 65.9-24.5 78.3-24.6 174.4H400zM1000 1200c0-87.2 22.6-83.5 61.8-129.2 33.5-39.3 59.7-70.8 138.2-70.8v200h-200z"/>
    <path class="strokeColor" style="fill:none;" d="M200 0c0 47.5-7.2 36-27.4 79a148.1 148.1 0 0 0-9.7 86c4.4 21 21.1 29.8 26.6 62.9 2 11.5-7.6 35.8-9.7 38.7-19 27-60.3 15.2-95.6-10.9C55.4 234.5 34.5 200 0 200M0 400c44.4 0 163.3 3.6 172.6 59.2 11.9 71.6-19.3 69.8-9.7 161 5 47.8 6.5 94.8 0 133-7 40.3-34.7 58.8-68.5 58.8C68.5 812 73 800 0 800M0 1000c35.7 0 75 5.8 140.2-43.2 20.3-15.2 75.7-95.3 85.3-115.6 19.7-41.8 22.8-114.4 60-120.3 41.8-1 42.5 52.5 42.5 109.6 0 46.3-52.6 146.2-84 195.1-38.8 60.3-44 59.3-44 174.4M400 0c0 165 55.5 175.2 37.6 244.1-10 38.3-98.6 109.3-87.8 138 16 42.8 91 15 143.3 87.8C534.3 527.3 495 600 572 600s24.5-114.2 68-171.3c13.8-18 90.5-112.8 125.5-200.8C803.8 131.9 800 41.3 800 0M1200 200c-200 0-260.7 199.7-330.6 114.6C814 247 1000 200 1000 0M1200 800c-76.8 0-157-66.3-213.6-27.6-53.2 36.5-63.6 83.2-93.5 156-12.8 31-54.7 62.8-68.3 97.2-26 65.9-24.5 78.3-24.6 174.4M400 1200c0-305 126.5-303.5 255.2-358.8 101.8-43.7 86.5-170.5 124-207.6 93-91.6 164.7-15.2 220.8-152 35-108 116-81.6 200-81.6M1000 1200c0-87.2 22.6-83.5 61.8-129.2 33.5-39.3 59.7-70.8 138.2-70.8"/>
  </g>
</svg>
