<svg xmlns="http://www.w3.org/2000/svg" width="1200" height="1200">
  <style>
    .primary {
      fill: #DEE1E6;
    }
    .secondary {
      fill: #F1F3F4;
    }
    .stroke {
      stroke: #292F33;
      stroke-width: 30;
      fill:none;
    }
  </style>
  <path class="primary" d="M 1000,1200 C 1000,1120 960,1180 960,1040 960,1010 980,960 1060,960 1130,960 1110,1000 1200,1000 V 1200 Z M 1200,200 C 1080,200 940,330 940,170 940,100 1000,50 1000,0 H 1200 Z M 200,0 C 200,70 310,110 310,160 310,250 230,320 180,320 140,320 30,200 0,200 V 0 Z M 0,1000 C 50,1000 130,900 170,900 210,900 240,970 240,1090 240,1140 200,1140 200,1200 H 0 Z M 1200,800 C 1160,800 1090,830 1000,830 890,830 840,900 840,1000 840,1090 800,1110 800,1200 H 400 C 400,1030 380,1040 380,950 380,830 570,640 710,640 820,640 840,450 960,450 1020,450 1100,400 1200,400 Z M 0,800 C 50,800 160,710 290,710 480,710 460,500 590,500 740,500 800,240 800,0 H 400 C 400,110 530,330 420,330 320,330 310,450 210,450 80,450 40,400 0,400 Z" />
  <path class="secondary" d="M 0,400 C 40,400 80,450 210,450 310,450 320,330 420,330 530,330 400,110 400,0 H 200 C 200,70 310,110 310,160 310,250 230,320 180,320 140,320 30,200 0,200 Z M 400,1200 C 400,1030 380,1040 380,950 380,830 570,640 710,640 820,640 840,450 960,450 1020,450 1100,400 1200,400 V 200 C 1080,200 940,330 940,170 940,100 1000,50 1000,0 H 800 C 800,240 740,500 590,500 460,500 480,710 290,710 160,710 50,800 0,800 V 1000 C 50,1000 130,900 170,900 210,900 240,970 240,1090 240,1140 200,1140 200,1200 Z M 1000,1200 C 1000,1120 960,1180 960,1040 960,1010 980,960 1060,960 1130,960 1110,1000 1200,1000 V 800 C 1160,800 1090,830 1000,830 890,830 840,900 840,1000 840,1090 800,1110 800,1200 Z" />
  <path class="stroke" d="M 200,0 C 200,70 310,110 310,160 310,250 230,320 180,320 140,320 30,200 0,200 M 0,400 C 40,400 80,450 210,450 310,450 320,330 420,330 530,330 400,110 400,0 M 0,1000 C 50,1000 130,900 170,900 210,900 240,970 240,1090 240,1140 200,1140 200,1200 M 0,800 C 50,800 160,710 290,710 480,710 460,500 590,500 740,500 800,240 800,0 M 1200,200 C 1080,200 940,330 940,170 940,100 1000,50 1000,0 M 1200,800 C 1160,800 1090,830 1000,830 890,830 840,900 840,1000 840,1090 800,1110 800,1200 M 400,1200 C 400,1030 380,1040 380,950 380,830 570,640 710,640 820,640 840,450 960,450 1020,450 1100,400 1200,400 M 1000,1200 C 1000,1120 960,1180 960,1040 960,1010 980,960 1060,960 1130,960 1110,1000 1200,1000" />
</svg>
