<svg xmlns="http://www.w3.org/2000/svg" width="1200" height="1200">
  <style>
    .fillColor {
      fill: #dee1e6;
    }
    .strokeColor {
      stroke: #292F33;
      stroke-width: 30;
    }
  </style>
  <g id="group">
    <path class="fillColor" style="stroke-width:0;" d="M0 200c220 0 400 180 400 400v600H200A200 200 0 0 0 0 1000V800a200 200 0 1 0 0-400V200zM800 1200V600c0-220 180-400 400-400v200a200 200 0 1 0 0 400v200a200 200 0 0 0-200 200H800z"/>
    <path class="fillColor" style="stroke-width:0;" d="M600 400A400 400 0 0 1 200 0h200a200 200 0 1 0 400 0h200c0 221-179 400-400 400z"/>
    <path class="strokeColor" style="fill:none;" d="M0 200c220 0 400 180 400 400v600M200 1200A200 200 0 0 0 0 1000M0 800a200 200 0 1 0 0-400M800 1200V600c0-220 180-400 400-400M1200 400a200 200 0 1 0 0 400M1200 1000a200 200 0 0 0-200 200M400 0a200 200 0 1 0 400 0M1000 0a400 400 0 1 1-800 0"/>
  </g>
</svg>
