<svg xmlns="http://www.w3.org/2000/svg" width="1200" height="1200">
  <style>
    .primary {
      fill: #DEE1E6;
    }
    .secondary {
      fill: #F1F3F4;
    }
    .stroke {
      stroke: #292F33;
      stroke-width: 30;
      fill:none;
    }
  </style>
  <path class="primary" d="M 0,1050 C 30,1050 50,1060 50,1090 50,1130 80,1140 110,1140 130,1140 150,1170 150,1200 H 0 Z M 350,1200 C 350,1160 360,1160 360,1120 360,1090 430,1060 450,1060 480,1060 500,1180 500,1200 Z M 1050,1200 C 1050,1140 1010,1170 1010,1090 1010,1040 1050,1030 1080,1030 1150,1030 1150,1050 1200,1050 V 1200 Z M 1200,350 C 1170,350 1160,290 1120,290 1080,290 1020,280 1000,280 950,280 880,310 880,370 880,420 830,400 830,470 830,540 880,600 880,640 880,670 910,740 910,800 910,830 930,910 970,910 1010,910 1150,850 1200,850 V 700 C 1150,700 1030,700 1030,650 1030,600 1000,590 1000,540 1000,510 1030,460 1070,460 1110,460 1170,500 1200,500 Z M 1050,0 C 1050,50 1080,80 1080,120 1080,180 1160,150 1200,150 V 0 Z M 700,0 C 700,20 650,50 650,100 650,150 640,210 600,210 510,210 440,230 440,200 440,170 470,140 470,100 470,50 500,20 500,0 H 350 C 350,60 310,100 310,160 310,220 270,160 270,270 270,310 350,300 410,300 460,300 510,370 570,370 620,370 770,350 770,280 770,250 850,210 850,160 V 0 Z M 0,150 C 60,150 70,180 100,180 120,180 180,140 180,100 180,50 150,40 150,0 H 0 Z M 700,1200 C 700,1130 630,1090 630,940 630,880 590,780 590,700 590,640 490,650 410,650 340,650 310,660 270,660 200,660 170,640 170,600 170,560 160,540 130,540 80,540 40,500 0,500 V 350 C 50,350 80,380 180,380 210,380 310,410 310,500 310,520 320,540 400,540 420,540 520,500 570,500 610,500 720,530 720,590 720,630 780,800 780,860 780,940 850,1130 850,1200 Z M 0,700 C 70,700 110,760 160,760 200,760 230,820 280,820 360,820 420,770 450,770 480,770 480,920 440,920 360,920 310,1000 250,1000 210,1000 160,950 120,950 60,950 40,850 0,850 Z" />
  <path class="secondary" d="M 500,1200 C 500,1180 480,1060 450,1060 430,1060 360,1090 360,1120 360,1160 350,1160 350,1200 H 150 C 150,1170 130,1140 110,1140 80,1140 50,1130 50,1090 50,1060 30,1050 0,1050 V 850 C 40,850 60,950 120,950 160,950 210,1000 250,1000 310,1000 360,920 440,920 480,920 480,770 450,770 420,770 360,820 280,820 230,820 200,760 160,760 110,760 70,700 0,700 V 500 C 40,500 80,540 130,540 160,540 170,560 170,600 170,640 200,660 270,660 310,660 340,650 410,650 490,650 590,640 590,700 590,780 630,880 630,940 630,1090 700,1130 700,1200 Z M 0,150 C 60,150 70,180 100,180 120,180 180,140 180,100 180,50 150,40 150,0 H 350 C 350,60 310,100 310,160 310,220 270,160 270,270 270,310 350,300 410,300 460,300 510,370 570,370 620,370 770,350 770,280 770,250 850,210 850,160 V 0 H 1050 C 1050,50 1080,80 1080,120 1080,180 1160,150 1200,150 V 350 C 1170,350 1160,290 1120,290 1080,290 1020,280 1000,280 950,280 880,310 880,370 880,420 830,400 830,470 830,540 880,600 880,640 880,670 910,740 910,800 910,830 930,910 970,910 1010,910 1150,850 1200,850 V 1050 C 1150,1050 1150,1030 1080,1030 1050,1030 1010,1040 1010,1090 1010,1170 1050,1140 1050,1200 H 850 C 850,1130 780,940 780,860 780,800 720,630 720,590 720,530 610,500 570,500 520,500 420,540 400,540 320,540 310,520 310,500 310,410 210,380 180,380 80,380 50,350 0,350 Z M 1200,500 C 1170,500 1110,460 1070,460 1030,460 1000,510 1000,540 1000,590 1030,600 1030,650 1030,700 1150,700 1200,700 Z M 500,0 C 500,20 470,50 470,100 470,140 440,170 440,200 440,230 510,210 600,210 640,210 650,150 650,100 650,50 700,20 700,0 Z" />
  <path class="stroke" d="M 350,1200 C 350,1160 360,1160 360,1120 360,1090 430,1060 450,1060 480,1060 500,1180 500,1200 M 0,500 C 40,500 80,540 130,540 160,540 170,560 170,600 170,640 200,660 270,660 310,660 340,650 410,650 490,650 590,640 590,700 590,780 630,880 630,940 630,1090 700,1130 700,1200 M 1200,350 C 1170,350 1160,290 1120,290 1080,290 1020,280 1000,280 950,280 880,310 880,370 880,420 830,400 830,470 830,540 880,600 880,640 880,670 910,740 910,800 910,830 930,910 970,910 1010,910 1150,850 1200,850 M 1200,500 C 1170,500 1110,460 1070,460 1030,460 1000,510 1000,540 1000,590 1030,600 1030,650 1030,700 1150,700 1200,700 M 350,1200 C 350,1160 360,1160 360,1120 360,1090 430,1060 450,1060 480,1060 500,1180 500,1200 M 500,0 C 500,20 470,50 470,100 470,140 440,170 440,200 440,230 510,210 600,210 640,210 650,150 650,100 650,50 700,20 700,0 M 350,0 C 350,60 310,100 310,160 310,220 270,160 270,270 270,310 350,300 410,300 460,300 510,370 570,370 620,370 770,350 770,280 770,250 850,210 850,160 850,80 850,60 850,0 M 1050,1200 C 1050,1140 1010,1170 1010,1090 1010,1040 1050,1030 1080,1030 1150,1030 1150,1050 1200,1050 M 1050,0 C 1050,50 1080,80 1080,120 1080,180 1160,150 1200,150 M 0,1050 C 30,1050 50,1060 50,1090 50,1130 80,1140 110,1140 130,1140 150,1170 150,1200 M 0,700 C 70,700 110,760 160,760 200,760 230,820 280,820 360,820 420,770 450,770 480,770 480,920 440,920 360,920 310,1000 250,1000 210,1000 160,950 120,950 60,950 40,850 0,850 M 0,500 C 40,500 80,540 130,540 160,540 170,560 170,600 170,640 200,660 270,660 310,660 340,650 410,650 490,650 590,640 590,700 590,780 630,880 630,940 630,1090 700,1130 700,1200 M 0,350 C 50,350 80,380 180,380 210,380 310,410 310,500 310,520 320,540 400,540 420,540 520,500 570,500 610,500 720,530 720,590 720,630 780,800 780,860 780,940 850,1130 850,1200 M 0,150 C 60,150 70,180 100,180 120,180 180,140 180,100 180,50 150,40 150,0" />
</svg>
