<svg xmlns="http://www.w3.org/2000/svg" width="1200" height="1200">
  <style>
    .primary {
      fill: #DEE1E6;
    }
    .secondary {
      fill: #F1F3F4;
    }
    .stroke {
      stroke: #292F33;
      stroke-width: 30;
      fill:none;
    }
  </style>
  <path class="primary" d="M 1100,1200 C 1100,1144.7715 1144.7715,1100 1200,1100 V 900 C 1034.3146,900 900,1034.3146 900,1200 Z M 700,1200 C 700,1067.3918 752.67842,940.2148 846.44661,846.44661 940.2148,752.67842 1067.3918,700 1200,700 V 500 C 1014.3485,500 836.30072,573.74979 705.02525,705.02525 573.74979,836.30072 500,1014.3485 500,1200 Z M 105.02525,1094.9747 C 111.74318,1024.9348 125.16573,955.70096 145.10839,888.22494 169.01443,807.33881 202.14422,729.4706 243.84471,656.15529 341.68927,484.13084 484.13084,341.68927 656.15529,243.84472 729.47059,202.14424 807.3388,169.01444 888.22492,145.1084 955.70095,125.16574 1024.9348,111.74319 1094.9747,105.02525 1129.883,101.677 1164.9315,99.999997 1200,100 V 300 C 961.30516,300 732.38664,394.82116 563.6039,563.6039 394.82116,732.38664 300,961.30516 300,1200 H 100 C 99.999997,1164.9315 101.677,1129.883 105.02525,1094.9747 Z M 1094.9747,105.02525 C 1098.323,70.116952 1100,35.068507 1100,0 H 900 C 900,48.608078 896.0621,97.13627 888.22495,145.10839 M 888.22492,145.1084 C 955.70095,125.16574 1024.9348,111.74319 1094.9747,105.02525 M 243.84471,656.15528 C 165.81663,685.15258 83.241962,700 0,700 V 500 C 132.60824,500 259.7852,447.32158 353.55339,353.55339 447.32158,259.7852 500,132.60824 500,0 H 700 C 700,83.241962 685.15258,165.81663 656.15528,243.84471 M 243.84471,656.15529 C 341.68927,484.13084 484.13084,341.68927 656.15529,243.84472 M 0,300 C 165.68542,300 300,165.68542 300,0 H 100 C 100,55.228475 55.228475,100 0,100 Z M 105.02527,1094.9747 C 70.116966,1098.323 35.068513,1100 0,1100 V 900 C 48.608078,900 97.13627,896.0621 145.10839,888.22495 M 105.02525,1094.9747 C 111.74318,1024.9348 125.16573,955.70096 145.10839,888.22494" />
  <path class="secondary" d="M 1100,1200 C 1100,1144.7715 1144.7715,1100 1200,1100 V 1200 Z M 900,1200 C 900,1034.3146 1034.3146,900 1200,900 V 700 C 1067.3918,700 940.2148,752.67842 846.44661,846.44661 752.67842,940.2148 700,1067.3918 700,1200 Z M 500,1200 C 500,1014.3485 573.74979,836.30072 705.02525,705.02525 836.30072,573.74979 1014.3485,500 1200,500 V 300 C 961.30516,300 732.38664,394.82116 563.6039,563.6039 394.82116,732.38664 300,961.30516 300,1200 Z M 1094.9747,105.02525 C 1129.883,101.677 1164.9315,99.999997 1200,100 V 0 H 1100 C 1100,35.068507 1098.323,70.116952 1094.9747,105.02525 M 888.22495,145.10839 C 896.0621,97.13627 900,48.608078 900,0 H 700 C 700,83.241962 685.15258,165.81663 656.15528,243.84471 M 656.15529,243.84472 C 729.47059,202.14424 807.3388,169.01444 888.22492,145.1084 M 0,500 C 132.60824,500 259.7852,447.32158 353.55339,353.55339 447.32158,259.7852 500,132.60824 500,0 H 300 C 300,165.68542 165.68542,300 0,300 Z M 100,0 C 100,55.228475 55.228475,100 0,100 V 0 Z M 145.10839,888.22495 C 97.13627,896.0621 48.608078,900 0,900 V 700 C 83.241962,700 165.81663,685.15258 243.84471,656.15528 M 145.10839,888.22494 C 169.01443,807.33881 202.14422,729.4706 243.84471,656.15529 M 105.02527,1094.9747 C 70.116966,1098.323 35.068513,1100 0,1100 V 1200 H 100 C 99.999997,1164.9315 101.677,1129.883 105.02525,1094.9747" />
  <path class="stroke" d="M 1100,0 A 1100,1100 0 0 1 1094.9747,105.02525 M 105.02527,1094.9747 A 1100,1100 0 0 1 0,1100 M 900,0 A 900,900 0 0 1 888.22495,145.10839 M 145.10839,888.22495 A 900,900 0 0 1 0,900 M 700,0 A 700,700 0 0 1 656.15528,243.84471 M 243.84471,656.15528 A 700,700 0 0 1 0,700 M 100,1200 A 1100,1100 0 0 1 105.02525,1094.9747 M 105.02525,1094.9747 A 1100,1100 0 0 1 145.10839,888.22494 M 145.10839,888.22494 A 1100,1100 0 0 1 243.84471,656.15529 M 243.84471,656.15529 A 1100,1100 0 0 1 656.15529,243.84472 M 656.15529,243.84472 A 1100,1100 0 0 1 888.22492,145.1084 M 888.22492,145.1084 A 1100,1100 0 0 1 1094.9747,105.02525 M 1094.9747,105.02525 A 1100,1100 0 0 1 1200,100 M 500,0 A 500,500 0 0 1 0,500 M 300,0 A 300,300 0 0 1 0,300 M 100,0 A 100,100 0 0 1 0,100 M 300,1200 A 900,900 0 0 1 1200,300 M 500,1200 A 700,700 0 0 1 1200,500 M 700,1200 A 500,500 0 0 1 1200,700 M 900,1200 A 300,300 0 0 1 1200,900 M 1100,1200 A 100,100 0 0 1 1200,1100" />
</svg>
