<svg xmlns="http://www.w3.org/2000/svg" width="1200" height="1200">
  <style>
    .fillColor {
      fill: #dee1e6;
    }
    .strokeColor {
      stroke: #292F33;
      stroke-width: 30;
    }
  </style>
  <g id="group">
    <path class="fillColor" style="stroke-width:0;" d="M400 0c0 221-179 400-400 400V200A200 200 0 0 0 200 0h200zM1200 1000c-200 0-400-200-400-1000h200a200 200 0 0 0 200 200v200a200 200 0 1 0 0 400v200zM0 800c800 0 1000 200 1000 400H800a200 200 0 1 0-400 0H200A200 200 0 0 0 0 1000V800z"/>
    <path class="strokeColor" style="fill:none;" d="M1000 0a200 200 0 0 0 200 200M1200 400a200 200 0 1 0 0 400M1200 1000c-200 0-400-200-400-1000M0 200A200 200 0 0 0 200 0M400 0c0 221-179 400-400 400M800 1200a200 200 0 1 0-400 0M200 1200A200 200 0 0 0 0 1000M0 800c800 0 1000 200 1000 400"/>
  </g>
</svg>
