<svg xmlns="http://www.w3.org/2000/svg" width="1200" height="1200">
  <style>
    .fillColor {
      fill: #dee1e6;
    }
    .strokeColor {
      stroke: #292F33;
      stroke-width: 30;
    }
  </style>
  <g id="group">
    <path class="fillColor" style="stroke-width:0;" d="M840 1080a120 120 0 0 1 120 120H720a120 120 0 0 1 120-120zM120 360A120 120 0 0 1 0 480V240a120 120 0 0 1 120 120zM240 0a360 360 0 1 1 720 0 360 360 0 0 1-720 0zm360 120a120 120 0 1 0 0-240 120 120 0 0 0 0 240z"/>
    <path class="fillColor" style="stroke-width:0;" d="M0 720c600 0 800-480 1200-480v240C600 480 400 960 0 960M240 1200c0-240 560-480 960-480v240c-400 0-720-100-720 240H240z"/>
    <path class="strokeColor" style="fill:none;" d="M720 1200a120 120 0 1 1 240 0M0 240a120 120 0 1 1 0 240M960 0a360 360 0 1 1-720 0M480 0a120 120 0 1 0 240 0M240 1200c0-240 560-480 960-480M1200 960c-400 0-720-100-720 240M0 720c600 0 800-480 1200-480M1200 480C600 480 400 960 0 960"/>
  </g>
</svg>
