<svg xmlns="http://www.w3.org/2000/svg" width="1200" height="1200">
  <style>
    .primary {
      fill: #DEE1E6;
    }
    .secondary {
      fill: #F1F3F4;
    }
    .stroke {
      stroke: #292F33;
      stroke-width: 30;
      fill:none;
    }
  </style>
  <path class="primary" d="M 0,900 H 1200 V 1100 H 0 Z M 0,700 H 1200 V 500 H 0 Z M 0,300 H 1200 V 100 H 0 Z M 100,100 H 300 M 300,100 V 0 H 100 V 100 M 500,100 H 700 M 700,100 V 0 H 500 V 100 M 900,100 H 1100 M 1100,100 V 0 H 900 V 100 M 100,1100 H 300 M 300,1100 V 1200 H 100 V 1100 M 500,1100 H 700 M 700,1100 V 1200 H 500 V 1100 M 900,1100 H 1100 M 1100,1100 V 1200 H 900 V 1100" />
  <path class="secondary" d="M 0,900 H 1200 V 700 H 0 Z M 0,500 H 1200 V 300 H 0 Z M 1100,1100 V 1200 H 1200 V 1100 H 1100 M 700,1100 H 900 M 900,1100 V 1200 H 700 V 1100 M 300,1100 H 500 M 500,1100 V 1200 H 300 V 1100 M 100,1100 V 1200 H 0 V 1100 H 100 M 100,100 V 0 H 0 V 100 H 100 M 300,100 H 500 M 500,100 V 0 H 300 V 100 M 700,100 H 900 M 900,100 V 0 H 700 V 100 M 1100,100 H 1200 V 0 H 1100 V 100" />
  <path class="stroke" d="M 1100,0 V 100 M 900,0 V 100 M 700,0 V 100 M 500,0 V 100 M 300,0 V 100 M 100,0 V 100 M 0,100 H 1200 M 1100,1100 V 1200 M 900,1100 V 1200 M 700,1100 V 1200 M 500,1100 V 1200 M 300,1100 V 1200 M 100,1100 V 1200 M 0,1100 H 1200 M 0,900 H 1200 M 0,700 H 1200 M 0,500 H 1200 M 0,300 H 1200" />
</svg>
