<svg xmlns="http://www.w3.org/2000/svg" width="1200" height="1200">
  <style>
    .primary {
      fill: #DEE1E6;
    }
    .secondary {
      fill: #F1F3F4;
    }
    .stroke {
      stroke: #292F33;
      stroke-width: 30;
      fill:none;
    }
  </style>
  <path class="primary" d="M 400,0 C 400,221 221,400 0,400 V 200 A 200,200 0 0 0 200,0 Z M 1200,1000 C 1000,1000 800,800 800,0 H 1000 A 200,200 0 0 0 1200,200 V 400 A 200,200 0 1 0 1200,800 Z M 0,800 C 800,800 1000,1000 1000,1200 H 800 A 200,200 0 1 0 400,1200 H 200 A 200,200 0 0 0 0,1000 Z" />
  <path class="secondary" d="M 200,1200 C 200,1089.5431 110.45695,1000 0,1000 V 1200 Z M 0,200 C 110.45695,200 200,110.45695 200,0 H 0 Z M 1000,0 C 1000,110.45695 1089.5431,200 1200,200 V 0 Z M 1200,400 C 1089.543,400 1000.0001,489.54305 1000.0001,600 1000.0001,710.45695 1089.543,800 1200,800 Z M 800,1200 C 800,1089.543 710.45695,1000.0001 600,1000.0001 489.54305,1000.0001 400,1089.543 400,1200 Z M 1200,1000 C 1000,1000 800,800 800,0 H 400 C 400,221 221,400 0,400 V 800 C 800,800 1000,1000 1000,1200 H 1200 Z" />
  <path class="stroke" d="M 1000,0 A 200,200 0 0 0 1200,200 M 1200,400 A 200,200 0 1 0 1200,800 M 1200,1000 C 1000,1000 800,800 800,0 M 0,200 A 200,200 0 0 0 200,0 M 400,0 C 400,221 221,400 0,400 M 800,1200 A 200,200 0 1 0 400,1200 M 200,1200 A 200,200 0 0 0 0,1000 M 0,800 C 800,800 1000,1000 1000,1200" />
</svg>
