<svg xmlns="http://www.w3.org/2000/svg" width="1200" height="1200">
  <style>
    .fillColor {
      fill: #dee1e6;
    }
    .strokeColor {
      stroke: #292F33;
      stroke-width: 30;
    }
  </style>
  <g id="group">
    <path class="fillColor" style="stroke-width:0;" d="M120 360A120 120 0 0 1 0 480V240a120 120 0 0 1 120 120z"/>
    <path class="fillColor" style="stroke-width:0;" d="M0 720c240 0 400-120 400-360 0-180-160-180-160-360h240c0 600 480 960 480 1200H720c0-370-420-500-480-370-50.6 109.7 240 130 240 370H240A240 240 0 0 0 0 960V720zM1200 480A480 480 0 0 1 720 0h240a240 240 0 0 0 240 240v240zM1200 720v240c-200 0-450-360-340-440 101.3-73.7 140 200 340 200z"/>
    <path class="strokeColor" style="fill:none;" d="M0 240a120 120 0 1 1 0 240M480 0c0 600 480 960 480 1200M720 1200c0-370-420-500-480-370-50.6 109.7 240 130 240 370M240 1200A240 240 0 0 0 0 960"/>
    <path class="strokeColor" style="fill:none;" d="M0 720c240 0 400-120 400-360 0-180-160-180-160-360M1200 480A480 480 0 0 1 720 0M960 0a240 240 0 0 0 240 240M1200 960c-200 0-450-360-340-440 101.3-73.7 140 200 340 200"/>
  </g>
</svg>
