<svg xmlns="http://www.w3.org/2000/svg" width="1200" height="1200">
  <style>
    .primary {
      fill: #DEE1E6;
    }
    .secondary {
      fill: #F1F3F4;
    }
    .stroke {
      stroke: #292F33;
      stroke-width: 30;
      fill:none;
    }
  </style>
  <path class="primary" d="M 0,240 C 66.274215,240 120,293.72583 120,360 120,426.27417 66.274215,480 0,480 Z M 720,1200 C 720,1000 430,760 340,880 250,1000 480,1000 480,1200 H 240 C 240,1067.4517 132.54834,960 0,960 V 720 C 182.25397,720 330,572.25397 330,390 330,270 240,120 240,0 H 480 C 480,600 960,960 960,1200 Z M 1200,960 C 1000,960 760,670 880,580 1000,490 1000,720 1200,720 Z M 1200,480 C 1072.6961,480 950.60621,429.42872 860.58875,339.41125 770.57128,249.39379 720,127.30392 720,0 H 960 C 960,132.54834 1067.4517,240 1200,240 Z" />
  <path class="secondary" d="M 0,240 C 66.274215,240 120,293.72583 120,360 120,426.27417 66.274215,480 0,480 V 720 C 182.25397,720 330,572.25397 330,390 330,270 240,120 240,0 H 0 Z M 240,1200 C 240,1067.4517 132.54834,960 0,960 V 1200 Z M 480,1200 C 480,1000 250,1000 340,880 430,760 720,1000 720,1200 Z M 1200,960 C 1000,960 760,670 880,580 1000,490 1000,720 1200,720 V 480 C 1072.6961,480 950.60621,429.42872 860.58875,339.41125 770.57128,249.39379 720,127.30392 720,0 H 480 C 480,600 960,960 960,1200 H 1200 Z M 960,0 C 960,132.54834 1067.4517,240 1200,240 V 0 Z" />
  <path class="stroke" d="M 480,1200 C 480,1000 250,1000 340,880 430,760 720,1000 720,1200 M 0,720 A 330,330 0 0 0 330,390 C 330,270 240,120 240,0 M 1200,480 A 480,480 0 0 1 720,0 M 960,0 A 240,240 0 0 0 1200,240 M 1200,960 C 1000,960 760,670 880,580 1000,490 1000,720 1200,720 M 0,240 A 120,120 0 0 1 0,480 M 480,0 C 480,600 960,960 960,1200 M 240,1200 A 240,240 0 0 0 0,960" />
</svg>
