<svg xmlns="http://www.w3.org/2000/svg" width="1200" height="1200">
  <style>
    .fillColor {
      fill: #dee1e6;
    }
    .strokeColor {
      stroke: #292F33;
      stroke-width: 30;
    }
  </style>
  <g id="group">
    <path class="fillColor" style="stroke-width:0;" d="M360 600A360 360 0 0 1 0 960V720a120 120 0 1 0 0-240V240a360 360 0 0 1 360 360zM720 0h240a240 240 0 0 0 240 240v240A480 480 0 0 1 720 0z"/>
    <path class="fillColor" style="stroke-width:0;" d="M240 1200c0-240 240-367 240-600 0-247-240-360-240-600h240c0 480 480 720 480 1200H720c1.3-77.2-10.3-166.7-24.7-240-20.7-105.2-54.6-172.8-127-86-66.1 79.5-88.3 183-88.3 326H240zM1200 720c-142 0-150.7-94.5-223.2-50-49 30-48.3 102.7 5.5 177 34 46.6 114.7 113 217.7 113"/>
    <path class="strokeColor" style="fill:none;" d="M0 240a360 360 0 1 1 0 720M0 720a120 120 0 1 0 0-240M1200 480A480 480 0 0 1 720 0h0M960 0a240 240 0 0 0 240 240M480 0h0c0 480 480 720 480 1200M720 1200c1.3-77.2-10.3-166.7-24.7-240-20.7-105.2-54.6-172.8-127-86-66.1 79.5-88.3 183-88.3 326"/>
    <path class="strokeColor" style="fill:none;" d="M240 1200c0-240 240-367 240-600 0-247-240-360-240-600h0M1200 720c-142 0-150.7-94.5-223.2-50-49 30-48.3 102.7 5.5 177 34 46.6 114.7 113 217.7 113"/>
  </g>
</svg>
