<svg
    xmlns="http://www.w3.org/2000/svg" 
    width="1200" 
    height="1200">
        <g id="group">
            <path class="fillColor" d="M0,1200v-400c618.18882,0,519.83249-238.84838,812.3315-347.41165C800,336.94264,800,188.13511,800,0h400v400c-181.81118,0-301.64366,20.65957-387.6685,52.58835C839.32758,705.75962,925.42341,800,1200,800v400h-400c0-260-400-260-400,0h-400ZM0,0h400C400,220,220,400,0,400L0,0Z" style="stroke-width:0;fill:#DEE1E6;"/>
            <path d="M0,400C220,400,400,220,400,0" style="fill:none;stroke-width:30;stroke:#000000;"/>
            <path d="M800,0c0,600,0,800,400,800" style="fill:none;stroke-width:30;stroke:#000000;"/>
            <path d="M1200,400C400,400,800,800,0,800" style="fill:none;stroke-width:30;stroke:#000000;"/>
            <path d="M400,1200c0-260,400-260,400,0" style="fill:none;stroke-width:30;stroke:#000000;"/>
        </g>
</svg>