<svg 
    xmlns="http://www.w3.org/2000/svg"
    width="1200" 
    height="1200">
        <g id="group">
            <path class="fillColor" d="M1050,601.58075c0-300,0-301.58075,150-300L1200,450c-70.43484,0-70.43484,0-70.43484,150s0,150,70.43484,150v151.58075c-150,0-150,0-150-300Z" style="stroke-width:0;"/>
            <path class="fillColor" d="M900,1200L900,0h-150c0,150,0,150-150.000002,150s-150,0-149.999998-150h-149.999999c-.000001,165.501712,0,105.958245,0,301.58075C300.000001,449.999999,299.999998,450,549.999998,450s250-.000001,250,150c0,100-50,30-50,150C750,860,750,1110,749.999999,1200" style="stroke-width:0;"/>
            <path class="fillColor" d="M0.000002,300C150,299.999994,150,299.999993,150,449.999994s.000003,150,150.000003,150s149.999997,0,149.999999,150.000004-.000002,369.831072-.000002,450.000002l-150,4.860503c0-49.596947.000004-119.466065.000003-154.860509c0-158.41925,0-148.41925-150.000003-148.41925-38.278123,0-90.604247-1.580745-150-1.580745l.000002-150.000005c61.789071-.000001,59.999998,0,149.999998,0c150.000003,0,149.999997-10,150-25s.000003-25-150-25c-50,0-50,0-50-100c0-12.600585,0-34.275582,0-50c0-99.999998,0-100-99.999998-99.999998v-149.999996Z" style="stroke-width:0;"/>
        </g>            
</svg>