<svg 
    xmlns="http://www.w3.org/2000/svg"
    width="1200" 
    height="1200">
        <g id="group">
            <path class="fillColor" d="M240,1200c0-240,240-366.96105,240-600C480,353.03458,240,240,240,0.00001L239.99998,0h240.00006L480,0.00001C480,480,960,720,960,1200h-240c1.29212-77.22177-10.28015-166.66001-24.69958-240-20.68019-105.18335-54.55499-172.7924-126.92505-85.94833C502.18165,953.48413,480,1057.06558,480.00004,1200L240,1200Z" style="stroke-width:0;"/>
            <path class="fillColor" d="M-360,600c0-198.82251,161.17749-360,360-360s360,161.17749,360,360-161.17749,360-360,360-360-161.17749-360-360ZM0,720c66.27417,0,120-53.72583,120-120s-53.72583-120-120-120-120,53.72583-120,120s53.72583,120,120,120Z" style="stroke-width:0;"/>
            <path class="fillColor" d="M720,0c0-265.09668,214.90332-480,480-480s480,214.90332,480,480-214.90332,480-480,480-480-214.90332-480-480Zm480,240c132.54834,0,240-107.45166,240-240s-107.45166-240-240-240-240,107.45166-240,240s107.45166,240,240,240Z" style="stroke-width:0;"/>
            <path class="fillColor" d="M1341.003417,874.051668L1200,720c-141.992166,0-150.683034-94.527751-223.227209-50.012006-48.963587,30.045838-48.307068,102.757318,5.564044,176.936599C1016.206355,893.562143,1096.956141,960,1199.999999,960l141.003418-85.948332Z" style="stroke-width:0;"/>
        </g>
</svg>