<svg
    xmlns="http://www.w3.org/2000/svg"
    width="1200" 
    height="1200">
        <g id="group">
            <path class="fillColor" d="M-400,0c0-220.9139,179.0861-400,400-400s400,179.0861,400,400-179.0861,400-400,400-400-179.0861-400-400ZM0,200c110.45695,0,200-89.54305,200-200s-89.54305-200-200-200-200,89.54305-200,200s89.54305,200,200,200Z" style="stroke-width:0;"/>
            <path class="fillColor" d="M1200,1000C1000,1000,800,800,800,0h200c0,110.45695,89.54305,200,200,200v200c-110.45695,0-200,89.54305-200,200s89.54305,200,200,200v200Z" style="stroke-width:0;"/>
            <path class="fillColor" d="M0,800c800,0,1000,200,1000,400h-200c0-110.45695-89.54305-200-200-200s-200,89.54305-200,200h-200c0-110.45695-89.54305-200-200-200v-200Z" style="stroke-width:0;"/>
        </g>            
</svg>