<svg 
    xmlns="http://www.w3.org/2000/svg"
    width="1200" 
    height="1200">
        <g id="group">
            <path class="fillColor" d="M0,200c220,0,400,180,400,400c0,170,0,336.45296,0,600h-200c0-110.45695-89.54305-200-200-200v-200c110.45695,0,200-89.54305,200-200s-89.54305-200-200-200v-200Z" style="stroke-width:0;"/>
            <path class="fillColor" d="M800,1200c0-221.85855,0-380.69927,0-600c0-220,180-400,400-400v200c-110.45695,0-200,89.54305-200,200s89.54305,200,200,200v200c-110.45695,0-200,89.54305-200,200h-200Z" style="stroke-width:0;"/>
            <path class="fillColor" d="M200,0c0-220.9139,179.0861-400,400-400s400,179.0861,400,400-179.0861,400-400,400-400-179.0861-400-400ZM600,200c110.45695,0,200-89.54305,200-200s-89.54305-200-200-200-200,89.54305-200,200s89.54305,200,200,200Z" style="stroke-width:0;"/>
        </g>
</svg>