<svg 
    xmlns="http://www.w3.org/2000/svg"
    width="1200" 
    height="1200">
    <g id="group">
        <path d="M200,0.000014c0,47.495337-7.240042,35.950957-27.441694,78.972944-5.737301,12.218312-17.65484,48.111754-9.685417,85.958082c4.422414,21.001789,21.156103,29.824644,26.634898,62.955214c1.907258,11.533294-7.647762,35.863546-9.685418,38.741671-19.111642,26.994583-60.294688,15.197243-95.643499-10.896095C55.409568,234.495271,34.51108,200,0,200L0.00001,0L200,0.000014Z" fill="#dee1e6" stroke-width="0"/>
        <path d="M0.00001,400c44.370614,0,163.303008,3.580943,172.558296,59.247809c11.894487,71.540593-19.212811,69.708569-9.685417,160.887758c5.00234,47.873456,6.518585,94.908635,0,133.078932-6.874949,40.257026-34.716471,58.805638-68.506384,58.805638C68.517139,812.020137,72.966543,800,0.00001,800v-400Z" fill="#dee1e6" stroke-width="0"/>
        <path d="M200,1199.999999h-199.99999v-199.999999c35.694178,0,74.910141,5.80091,140.192033-43.160509c20.299966-15.224974,75.720857-95.358712,85.288125-115.607402c19.761356-41.824015,22.779271-114.463738,60.111909-120.320675c41.724713-1.098018,42.431936,52.517848,42.431936,109.615834c0,46.302255-52.605194,146.12996-84.080392,195.091379C205.209775,1085.871276,200,1084.93339,200,1199.999999Z" fill="#dee1e6" stroke-width="0"/>
        <path d="M800,0.000014h-400c0,164.931026,55.486818,175.165729,37.566118,244.121892-9.945325,38.268119-98.563849,109.316268-87.811429,137.989388c16.038652,42.769739,91.022322,14.986002,143.365598,87.811428c41.21761,57.346239,1.79207,130.077285,78.851079,130.077285s24.534931-114.166112,68.098658-171.294894c13.714057-17.984398,90.381963-112.807202,125.444898-200.818859C803.76098,131.884621,800,41.3133,800,0.000014Z" fill="#dee1e6" stroke-width="0"/>
        <path d="M1200,200c-200,0-260.665797,199.688573-330.581946,114.57326C814.005169,247.114095,1000.045868,200,1000,0.000014L1200,0v200Z" fill="#dee1e6" stroke-width="0"/>
        <path d="M400,1200c0-304.94516,126.54839-303.46482,255.22273-358.76791c101.82624-43.76401,86.46481-170.56502,124.06445-207.61806C872.28665,541.96651,943.86247,618.42247,1000,481.69838c35.09041-108.06605,116.03355-81.69837,200-81.69837v400c-76.83093,0-156.94288-66.25323-213.55422-27.55425-53.25708,36.40603-63.60634,83.12732-93.59446,155.99077-12.78437,31.06275-54.67326,62.76739-68.24596,97.18211-25.97939,65.8729-24.51362,78.3075-24.60535,174.38137L400,1200Z" fill="#dee1e6" stroke-width="0"/>
        <path d="M1000,1200c0-87.152491,22.641138-83.462055,61.759765-129.223467C1095.348553,1031.48399,1121.544836,1000.000001,1200,1000v200h-200Z" fill="#dee1e6" stroke-width="0"/>
        <path d="M200,0.000014c0,47.495337-7.240042,35.950957-27.441694,78.972944-5.737301,12.218312-17.65484,48.111754-9.685417,85.958082c4.422414,21.001789,21.156103,29.824644,26.634898,62.955214c1.907258,11.533294-7.647762,35.863546-9.685418,38.741671-19.111642,26.994583-60.294688,15.197243-95.643499-10.896095C55.409568,234.495271,34.51108,200,0,200" fill="none" stroke="#000000" stroke-width="30"/>
        <path d="M0.00001,400c44.370614,0,163.303008,3.580943,172.558296,59.247809c11.894487,71.540593-19.212811,69.708569-9.685417,160.887758c5.00234,47.873456,6.518585,94.908635,0,133.078932-6.874949,40.257026-34.716471,58.805638-68.506384,58.805638C68.517139,812.020137,72.966543,800,0.00001,800" fill="none" stroke="#000000" stroke-width="30"/>
        <path d="M0.00001,1000c35.694178,0,74.910141,5.80091,140.192033-43.160509c20.299966-15.224974,75.720857-95.358712,85.288125-115.607402c19.761356-41.824015,22.779271-114.463738,60.111909-120.320675c41.724713-1.098018,42.431936,52.517848,42.431936,109.615834c0,46.302255-52.605194,146.12996-84.080392,195.091379C205.209775,1085.871276,200,1084.93339,200,1199.999999" fill="none" stroke="#000000" stroke-width="30"/>
        <path d="M400,0.000014c0,164.931026,55.486818,175.165729,37.566118,244.121892-9.945325,38.268119-98.563849,109.316268-87.811429,137.989388c16.038652,42.769739,91.022322,14.986002,143.365598,87.811428c41.21761,57.346239,1.79207,130.077285,78.851079,130.077285s24.534931-114.166112,68.098658-171.294894c13.714057-17.984398,90.381963-112.807202,125.444898-200.818859C803.76098,131.884621,800,41.3133,800,0.000014" transform="translate(.000001 0)" fill="none" stroke="#000000" stroke-width="30"/>
        <path d="M1200,200c-200,0-260.665797,199.688573-330.581946,114.57326C814.005169,247.114095,1000.045868,200,1000,0.000014" transform="translate(.000001 0)" fill="none" stroke="#000000" stroke-width="30"/>
        <path d="M1200,800.00001c-76.83093,0-156.94288-66.25323-213.55422-27.55425-53.25708,36.40603-63.60634,83.12732-93.59446,155.99077-12.78437,31.06275-54.67326,62.76739-68.24596,97.18211-25.97939,65.8729-24.51362,78.3075-24.60535,174.38137" fill="none" stroke="#000000" stroke-width="30"/>
        <path d="M400,1200c0-304.94516,126.54839-303.46482,255.22273-358.76791c101.82624-43.76401,86.46481-170.56502,124.06445-207.61806C872.28665,541.96651,943.86247,618.42247,1000,481.69838c35.09041-108.06605,116.03355-81.69837,200-81.69837" fill="none" stroke="#000000" stroke-width="30"/>
        <path d="M1000,1200c0-87.152491,22.641138-83.462055,61.759765-129.223467C1095.348553,1031.48399,1121.544836,1000.000001,1200,1000" fill="none" stroke="#000000" stroke-width="30"/>
    </g>
</svg>