<svg 
    xmlns="http://www.w3.org/2000/svg"
    width="1200" 
    height="1200">
    <g id="group">
        <path d="M400,0C400,220.9139,220.9139,400,0,400v-200c110.45695,0,200-89.54305,200-200h200Z" fill="#dee1e6" stroke-width="0"/>
        <path d="M1200,1000C1000,1000,800,800,800,0h200c0,110.45695,89.54305,200,200,200v200c-110.45695,0-200,89.54305-200,200s89.54305,200,200,200v200Z" fill="#dee1e6" stroke-width="0"/>
        <path d="M0,800c800,0,1000,200,1000,400h-200c0-110.45695-89.54305-200-200-200s-200,89.54305-200,200h-200c0-110.45695-89.54305-200-200-200v-200Z" fill="#dee1e6" stroke-width="0"/>
        <path d="M1000,0c0,110.45695,89.54305,200,200,200" fill="none" stroke="#000000" stroke-width="30"/>
        <path d="M1200,400c-110.45695,0-200,89.54305-200,200s89.54305,200,200,200" fill="none" stroke="#000000" stroke-width="30"/>
        <path d="M1200,1000C1000,1000,800,800,800,0" fill="none" stroke="#000000" stroke-width="30"/>
        <path d="M0,200c110.45695,0,200-89.54305,200-200" fill="none" stroke="#000000" stroke-width="30"/>
        <path d="M400,0C400,220.9139,220.9139,400,0,400" fill="none" stroke="#000000" stroke-width="30"/>
        <path d="M800,1200c0-110.45695-89.54305-200-200-200s-200,89.54305-200,200" fill="none" stroke="#000000" stroke-width="30"/>
        <path d="M200,1200c0-110.45695-89.54305-200-200-200" fill="none" stroke="#000000" stroke-width="30"/>
        <path d="M0,800c800,0,1000,200,1000,400" fill="none" stroke="#000000" stroke-width="30"/>
    </g>
</svg>