<svg xmlns="http://www.w3.org/2000/svg" width="800" height="200" viewBox="0 0 800 200">
  <defs>
    <style>
      .cls-1 {
        fill-rule: evenodd;
      }
    </style>
  </defs>
  <path id="truchettiles" class="cls-1" d="M52.612,119.363q-2.583.714-5.713,1.263a37.05,37.05,0,0,1-6.427.549q-5.164,0-7.361-2.444t-2.2-7.224V85.25h21.7V74.813h-21.7V56.96L17.181,60.531V74.813h-15V85.25h15V112.5a27.265,27.265,0,0,0,1.236,8.707,13.969,13.969,0,0,0,3.845,6.015,16.466,16.466,0,0,0,6.592,3.515,34.307,34.307,0,0,0,9.476,1.154,52.6,52.6,0,0,0,6.976-.494q3.68-.5,7.306-1.319V119.363Zm70.829-22.852a37.081,37.081,0,0,0-.906-9.97,18.954,18.954,0,0,0-3.3-7.169,14.2,14.2,0,0,0-5.493-4.312,18.276,18.276,0,0,0-7.5-1.456,22.836,22.836,0,0,0-5.658.659,18.14,18.14,0,0,0-4.7,1.9A19.468,19.468,0,0,0,92.048,79.1a22.094,22.094,0,0,0-3.1,3.845l-0.494-8.13H76.31v55.811H90.043V95.3a35.218,35.218,0,0,1,6.949-8.047,10.1,10.1,0,0,1,6.124-2.444,6.671,6.671,0,0,1,3.022.659,5.617,5.617,0,0,1,2.224,2.087,10.269,10.269,0,0,1,1.319,3.625,24.772,24.772,0,0,1,.3,5.328h13.458Zm17.985-21.7v37.463a28.163,28.163,0,0,0,1.071,8.048,17.254,17.254,0,0,0,3.213,6.18,14.244,14.244,0,0,0,5.356,3.982,18.635,18.635,0,0,0,7.5,1.4,20.808,20.808,0,0,0,5.521-.687,19.165,19.165,0,0,0,4.614-1.922,20.472,20.472,0,0,0,3.928-2.994,46.921,46.921,0,0,0,3.571-3.9l0.329,8.24h11.591V74.813h-13.4v35.321a48.6,48.6,0,0,1-6.564,7.5,9.621,9.621,0,0,1-6.454,2.774,5.969,5.969,0,0,1-5.164-2.334q-1.7-2.334-1.7-6.894V74.813h-13.4Zm112.741,41.748a37.437,37.437,0,0,1-3.543,1.318q-1.895.606-3.845,1.072a36.558,36.558,0,0,1-3.9.714,29.681,29.681,0,0,1-3.708.247,17.666,17.666,0,0,1-6.592-1.181,14.12,14.12,0,0,1-5.081-3.406,15.281,15.281,0,0,1-3.268-5.411,21.034,21.034,0,0,1-1.154-7.2,22.213,22.213,0,0,1,1.071-7.058,15.226,15.226,0,0,1,3.1-5.466,14.036,14.036,0,0,1,5-3.516,16.951,16.951,0,0,1,6.7-1.263,33.147,33.147,0,0,1,7.554.934,33.7,33.7,0,0,1,7.388,2.637V75.967a51.514,51.514,0,0,0-6.674-1.456,60.914,60.914,0,0,0-9.146-.577,33.265,33.265,0,0,0-12.058,2.087A25.805,25.805,0,0,0,210.8,91.238a33.251,33.251,0,0,0-2.115,12.139,35.06,35.06,0,0,0,1.95,12.2,23.422,23.422,0,0,0,5.631,8.844,23.723,23.723,0,0,0,8.954,5.384,36.553,36.553,0,0,0,11.92,1.812,49.355,49.355,0,0,0,8.844-.769,41.8,41.8,0,0,0,8.184-2.362v-11.92Zm69.017,14.063V93.16a28.131,28.131,0,0,0-1.072-8.047A16.982,16.982,0,0,0,318.9,78.96a14.416,14.416,0,0,0-5.328-3.955,18.442,18.442,0,0,0-7.471-1.4,22,22,0,0,0-5.219.577,18.34,18.34,0,0,0-4.394,1.675,18.718,18.718,0,0,0-3.79,2.719,39.112,39.112,0,0,0-3.461,3.653L289.9,72.121V53.005h-13.4v77.619h13.4V95.3a47.494,47.494,0,0,1,6.564-7.471,9.73,9.73,0,0,1,6.51-2.747q6.81,0,6.811,9.174v36.365h13.4Zm67.807-42.188a21.988,21.988,0,0,0-4.669-7.855,21.056,21.056,0,0,0-7.635-5.136A27.882,27.882,0,0,0,368.2,73.6a26.335,26.335,0,0,0-10.849,2.17,23.161,23.161,0,0,0-8.268,6.152,28.377,28.377,0,0,0-5.273,9.558,38.838,38.838,0,0,0-1.868,12.387,35.8,35.8,0,0,0,1.868,12.085,23.425,23.425,0,0,0,5.383,8.761,22.632,22.632,0,0,0,8.57,5.356,33.674,33.674,0,0,0,11.425,1.813q2.526,0,5.219-.192t5.328-.577q2.637-.386,5.164-0.879t4.669-1.1V118.484a69.038,69.038,0,0,1-9.641,2.06,64.782,64.782,0,0,1-8.706.631,19.645,19.645,0,0,1-6.4-.988,13.845,13.845,0,0,1-4.944-2.884,12.731,12.731,0,0,1-3.186-4.7,17.285,17.285,0,0,1-1.126-6.482h36.695q0.165-1.921.247-4.12t0.082-3.57A30.13,30.13,0,0,0,390.991,88.436ZM355.78,96.511q0.6-6.151,3.845-9.531a10.992,10.992,0,0,1,8.3-3.378,11.946,11.946,0,0,1,4.312.769,9.491,9.491,0,0,1,3.516,2.362,11.388,11.388,0,0,1,2.389,4.038,16.171,16.171,0,0,1,.824,5.74H355.78Zm101.7,22.852q-2.582.714-5.712,1.263a37.057,37.057,0,0,1-6.427.549q-5.164,0-7.361-2.444t-2.2-7.224V85.25h21.7V74.813h-21.7V56.96L422.05,60.531V74.813h-15V85.25h15V112.5a27.265,27.265,0,0,0,1.236,8.707,13.958,13.958,0,0,0,3.845,6.015,16.465,16.465,0,0,0,6.592,3.515,34.3,34.3,0,0,0,9.475,1.154,52.6,52.6,0,0,0,6.977-.494q3.679-.5,7.305-1.319V119.363Zm67.478,0q-2.582.714-5.712,1.263a37.057,37.057,0,0,1-6.427.549q-5.164,0-7.361-2.444t-2.2-7.224V85.25h21.7V74.813h-21.7V56.96l-13.732,3.571V74.813h-15V85.25h15V112.5a27.265,27.265,0,0,0,1.236,8.707,13.968,13.968,0,0,0,3.845,6.015,16.465,16.465,0,0,0,6.592,3.515,34.3,34.3,0,0,0,9.475,1.154,52.6,52.6,0,0,0,6.977-.494q3.679-.5,7.3-1.319V119.363Zm53.636-63.227a8.78,8.78,0,0,0-1.84-2.8,8.6,8.6,0,0,0-6.235-2.582,8.843,8.843,0,0,0-3.488.687,8.524,8.524,0,0,0-2.8,1.9,9.014,9.014,0,0,0-1.84,9.613,8.417,8.417,0,0,0,1.84,2.774,8.709,8.709,0,0,0,2.8,1.868,8.829,8.829,0,0,0,3.488.687,8.641,8.641,0,0,0,3.46-.687,8.81,8.81,0,0,0,2.775-1.868,8.448,8.448,0,0,0,1.84-2.774A9.13,9.13,0,0,0,578.594,56.136Zm-14.173,64.051H546.733v10.437h47.516V120.187h-16.1V74.813h-29.5V85.25h15.765v34.937Zm67.478,0H614.211v10.437h47.516V120.187h-16.1V53.005h-29.5V63.442H631.9v56.745Zm96.482-31.751a21.973,21.973,0,0,0-4.669-7.855,21.056,21.056,0,0,0-7.635-5.136,27.878,27.878,0,0,0-10.492-1.84,26.335,26.335,0,0,0-10.849,2.17,23.149,23.149,0,0,0-8.267,6.152,28.379,28.379,0,0,0-5.274,9.558,38.838,38.838,0,0,0-1.868,12.387,35.8,35.8,0,0,0,1.868,12.085,23.438,23.438,0,0,0,5.383,8.761,22.64,22.64,0,0,0,8.57,5.356,33.678,33.678,0,0,0,11.425,1.813q2.528,0,5.219-.192t5.328-.577q2.637-.386,5.164-0.879t4.669-1.1V118.484a69.056,69.056,0,0,1-9.64,2.06,64.784,64.784,0,0,1-8.707.631,19.645,19.645,0,0,1-6.4-.988,13.832,13.832,0,0,1-4.943-2.884,12.707,12.707,0,0,1-3.186-4.7,17.285,17.285,0,0,1-1.127-6.482h36.695q0.165-1.921.247-4.12t0.082-3.57A30.13,30.13,0,0,0,728.381,88.436ZM693.17,96.511q0.6-6.151,3.845-9.531A10.992,10.992,0,0,1,705.31,83.6a11.946,11.946,0,0,1,4.312.769,9.483,9.483,0,0,1,3.516,2.362,11.374,11.374,0,0,1,2.389,4.038,16.171,16.171,0,0,1,.824,5.74H693.17Zm100.822,11.92a11.666,11.666,0,0,0-2.884-4.5,19.208,19.208,0,0,0-5.3-3.543,52.862,52.862,0,0,0-8.13-2.939q-4.284-1.208-6.894-2.225a23.551,23.551,0,0,1-4.065-1.95,5.267,5.267,0,0,1-1.95-1.923,4.961,4.961,0,0,1-.494-2.252,4.581,4.581,0,0,1,2.5-4.12,12.889,12.889,0,0,1,6.619-1.483,55.994,55.994,0,0,1,8.322.632,57.345,57.345,0,0,1,8.982,2.17V75.362q-3.132-.659-7.2-1.209a70.567,70.567,0,0,0-9.339-.549,38.531,38.531,0,0,0-10.656,1.318,23.5,23.5,0,0,0-7.608,3.6,15.284,15.284,0,0,0-4.587,5.3,13.966,13.966,0,0,0-1.538,6.427,16.82,16.82,0,0,0,1.016,6.125,12.8,12.8,0,0,0,3.049,4.586,18.577,18.577,0,0,0,5.136,3.434A46.812,46.812,0,0,0,766.2,107q4.451,1.265,7.2,2.28a23.248,23.248,0,0,1,4.258,1.977,5.7,5.7,0,0,1,2.059,2,4.881,4.881,0,0,1,.55,2.307,5.024,5.024,0,0,1-2.609,4.367q-2.61,1.677-7.883,1.676a52.711,52.711,0,0,1-9.7-.962,51.6,51.6,0,0,1-10.3-3.1v12.085a73.512,73.512,0,0,0,9.338,1.675,96.333,96.333,0,0,0,11.1.577,42.486,42.486,0,0,0,9.037-.961,25.653,25.653,0,0,0,7.91-3.076,16.752,16.752,0,0,0,5.6-5.494,15.075,15.075,0,0,0,2.115-8.157A17.541,17.541,0,0,0,793.992,108.431Z"/>
</svg>
